<svg xmlns="http://www.w3.org/2000/svg" width="740" height="680" viewBox="0 0 740 680"><g transform="translate(7118 -4718)"><g transform="translate(-7118 4718)"><path d="M.811,165.875C17.118,81.9,182.118,129.74,290.29,103.779S526.439-43.085,611.137,16.14s-5.42,202.387-199.679,234.695S-15.5,249.848.811,165.875Z" transform="translate(53 354)" fill="#f2f2f2"/><g transform="translate(95 125)" opacity="0.5"><path d="M1.085,1C-.488,2.574.123,8.156.09,10.221c-.051,3.216.15,6.4.418,9.606.18,2.145,1.2,22.618,4.021,21.045,1.593-.886.594-6.808.592-8.681-.007-4.164-.18-8.319-.457-12.474A109.174,109.174,0,0,1,4.392,8.183C4.428,7.239,5.311-3.23,1.085,1" transform="translate(0.823 1.669)" fill="#89c5cc"/><path d="M70.132.018C56.619.126,43.111.792,29.6,1.2c-6.5.2-12.995.446-19.487.807-2.212.123-6.957-.585-8.8.593C-2.776,5.218,3.823,5.83,5.582,5.766,32.312,4.8,59.052,3.52,85.8,3.459c13.123-.029,26.241.344,39.365.261,5.017-.032,10.573-2.193,11.84,3.646,1.43,6.59-.213,13.927-.66,20.548a116.178,116.178,0,0,0,.007,13.166c.128,2.829-.2,6.018.3,8.794.481,2.674,2.4,4.277,4.166,1.282,1.053-1.79.529-6.209.6-8.282.094-2.792.006-5.584.006-8.377,0-6.817.962-13.607.834-20.422-.082-4.395-.315-12.362-5.858-13.418-6.1-1.163-13.607.006-19.853-.065C101.067.416,85.615-.1,70.132.018" transform="translate(0.277 0.131)" fill="#89c5cc"/><path d="M32.968.084Q25.324.084,17.681.2C13.311.271,6.441-.64,2.374.924-.411,1.994-1.15,5.1,2.374,5.93c3.843.9,9.636-.573,13.657-.644,20.164-.356,40.522-.82,60.658.455,18.868,1.195,38.1,2.353,56.994,1.092,1.59-.106,9.7-.429,6-3.468-2.158-1.774-10.907-.607-13.712-.692-9.894-.3-19.8-.365-29.69-.74C86.517,1.563,76.8.465,67.032.194,55.687-.122,44.317.084,32.968.084" transform="translate(0.206 42.702)" fill="#89c5cc"/><path d="M16.765,27.9h0c-6.906,0-14.444-3.316-15.717-10.724A6.9,6.9,0,0,1,1,15.862a5.873,5.873,0,0,0-.073-1.415,2.733,2.733,0,0,0-.442-.825A2.168,2.168,0,0,1,0,12.569c-.014-2.018,1.155-3.118,2.508-4.391A20.034,20.034,0,0,0,4,6.67C6.7,3.544,8.4,2.013,11.969.618A9.4,9.4,0,0,1,15.407,0,17.037,17.037,0,0,1,25.439,3.889c3.141,2.447,5.314,5.527,5.963,8.45a12.019,12.019,0,0,1-1.66,9.142,13.794,13.794,0,0,1-8.663,5.971A20.452,20.452,0,0,1,16.765,27.9ZM5.974,11.96h0a7.865,7.865,0,0,0,.759,7.521c1.98,2.85,5.956,4.692,10.13,4.692A11.743,11.743,0,0,0,23.6,22.2a7.541,7.541,0,0,0,3.048-3.941,7.777,7.777,0,0,0-.036-4.549,13.064,13.064,0,0,0-4.1-6.094,11.325,11.325,0,0,0-6.677-2.848,1.727,1.727,0,0,1-.952.468.821.821,0,0,1-.392-.12l-.009,0a.893.893,0,0,0-.427-.125.962.962,0,0,0-.291.049,11.678,11.678,0,0,0-3.4,2.018l-.246.186-.284.214A19.341,19.341,0,0,0,6.9,9.964c0,.005-.107.231-.237.516-.252.555-.673,1.482-.7,1.492a.02.02,0,0,1,0-.012Z" transform="translate(12.238 9.031)" fill="#89c5cc"/><path d="M0,2.439c0,3.219,5.085,3.219,5.085,0C5.085-.744,0-.881,0,2.439" transform="translate(20.896 19.704)" fill="#89c5cc"/><path d="M0,1.938C0,4.5,4.041,4.5,4.041,1.938,4.041-.592,0-.7,0,1.938" transform="translate(27.258 19.554)" fill="#89c5cc"/><path d="M4.8.095C3.505.592,1.864-.439.8.24c-1.881,1.2,0,2.294,1.013,2.778C6.355,5.2,7.163-.811,4.8.095" transform="translate(23.71 26.672)" fill="#89c5cc"/><path d="M2.059,9.407a2.29,2.29,0,0,1-.6-.083C.381,9.03-.1,8.429.018,7.536.218,6.048,2.051,4.153,3.7,2.877,5.784,1.263,7.93.26,9.3.26A2.423,2.423,0,0,1,9.64.283,9.37,9.37,0,0,1,13.338,2a9.1,9.1,0,0,0,3.84,1.737,5.977,5.977,0,0,0,.68.039,11.564,11.564,0,0,0,5.371-1.865A15.788,15.788,0,0,1,27.138.22,8.941,8.941,0,0,1,29.093,0c2.508,0,4.662,1.082,6.746,2.129l.042.021c2.064,1.036,4.2,2.107,6.606,2.107a8.648,8.648,0,0,0,3.006-.55c.332-.121.695-.274,1.108-.468l.026-.01c.4-.191.8-.4,1.194-.593a11.872,11.872,0,0,1,4.427-1.564c.126-.008.254-.012.38-.012,2.137,0,3.967,1.175,5.738,2.312.7.448,1.42.911,2.139,1.286A4.713,4.713,0,0,0,61.57,5c.844.2,1.64.394,1.75,1.4a1.314,1.314,0,0,1-.236,1.064,1.452,1.452,0,0,1-1.143.365,9.007,9.007,0,0,1-.992-.076c-.132-.015-.257-.029-.378-.04a8.8,8.8,0,0,1-3.9-1.76,8.741,8.741,0,0,0-3.758-1.72,4.055,4.055,0,0,0-.421-.022,12.768,12.768,0,0,0-5.026,1.675,16.276,16.276,0,0,1-3.8,1.489,9.99,9.99,0,0,1-1.827.172,13.647,13.647,0,0,1-6.317-1.862l-.66-.344c-2.034-1.063-3.641-1.9-5.587-1.9a8.287,8.287,0,0,0-3.128.673c-.879.356-1.717.763-2.527,1.157-2.053,1-3.991,1.941-6.326,1.941a8.958,8.958,0,0,1-1.483-.126,11.348,11.348,0,0,1-3.08-1.308A9.054,9.054,0,0,0,9,4.385a2.5,2.5,0,0,0-.271.014C7.552,4.529,6.549,5.712,5.58,6.857,4.517,8.111,3.419,9.407,2.059,9.407Z" transform="translate(50.94 16.523)" fill="#89c5cc"/><path d="M78.421.054C64.532.181,50.6.387,36.747,1.5,33.463,1.764-.064,4.93,0,5.158c.117.422,4.43,1.066,4.4,1.166Q3.967,5.243,2.41,5.429c31.8,0,63.494-2.847,95.334-2.335,8,.128,16.03.075,24.025.327,2,.063,6.941,1.494,8.508.592,4.114-2.365-3.36-2.638-4.6-2.738C110.011.022,94.134-.1,78.421.054" transform="translate(5.672 63.058)" fill="#69a1ac"/><path d="M.964,1.039C-1.112,3.121.8,10.61.881,13.425,1,17.494.9,21.592,1.259,25.651A82.7,82.7,0,0,0,3.516,39.725c.67,2.478,3.022,6.416,3.953,1.914.665-3.216-.345-7.482-.7-10.759a126.813,126.813,0,0,1-.6-13.112c-.016-3.838-.09-7.691-.4-11.517C5.6,4.265,4.6-2.581.964,1.039" transform="translate(0.592 68.82)" fill="#69a1ac"/><path d="M48.531.083C38.675.253,28.8.485,18.958,1.1c-4.033.253-8.062.629-12.08,1.055-.82.087-9.895.455-5.84,3.8,1.83,1.512,9.359-.578,11.846-.8,4.182-.367,8.364-.6,12.558-.782,9.718-.413,19.467-.777,29.195-.608,17.766.308,35.418.446,53.19.05,2.525-.056,22.306.472,22.978-2.155.541-2.117-6.533-1.146-7.822-1.107-4.732.141-9.464.108-14.2.084-20.051-.1-40.219-.9-60.255-.561" transform="translate(5.263 107.915)" fill="#69a1ac"/><path d="M0,2.466c.313,8.775,1.807,17.54,2.285,26.342.218,4.024.475,8.043.672,12.068.064,1.3-.46,4.427,1.076,5.174,2.106,1.024,2.39-1.04,2.784-2.436,1.139-4.033.369-9.271.265-13.414-.1-4.011-.107-8.03-.4-12.034-.3-4.091-1.127-8.1-1.509-12.18-.162-1.724.4-4.593-1.427-5.663A2.509,2.509,0,0,0,0,2.466" transform="translate(132.717 63.881)" fill="#69a1ac"/><path d="M18.221,28.908h-.154c-2.632-.023-7.664-.367-11.8-2.412a11.932,11.932,0,0,1-4.456-3.583A9.685,9.685,0,0,1,0,17.172a18.542,18.542,0,0,1,4.217-11.3A17.126,17.126,0,0,1,8.861,1.792a12.412,12.412,0,0,1,5.7-1.774c.23-.012.465-.018.7-.018a15.878,15.878,0,0,1,5.671,1.1A19.977,19.977,0,0,1,26.14,4.076a19.89,19.89,0,0,1,4.114,4.357,15.712,15.712,0,0,1,2.389,5.246,11.088,11.088,0,0,1-1.954,9.773,13.843,13.843,0,0,1-5.442,4.037,17.972,17.972,0,0,1-7.024,1.418h0ZM14.342,4A10.759,10.759,0,0,0,6.53,7.928,13.894,13.894,0,0,0,3.3,16.239a7.259,7.259,0,0,0,1.967,5.54,11.758,11.758,0,0,0,5.764,2.983,28.856,28.856,0,0,0,6.793.742l.462,0c3.921-.049,7.53-1.63,9.418-4.126a7.665,7.665,0,0,0,1.136-6.852,11.909,11.909,0,0,0-2.3-4.282,20.51,20.51,0,0,0-3.535-3.41A12.1,12.1,0,0,0,17.1,4.586,26.03,26.03,0,0,1,14.342,4Z" transform="translate(13.127 74.346)" fill="#69a1ac"/><path d="M0,1.96c0,2.587,4.088,2.587,4.088,0C4.088-.6,0-.708,0,1.96" transform="translate(19.542 84.863)" fill="#69a1ac"/><path d="M0,1.975c0,2.608,4.121,2.608,4.121,0C4.121-.6,0-.714,0,1.975" transform="translate(28.117 83.712)" fill="#69a1ac"/><path d="M.472.344C-2.188,3,7.159,7.658,9.364,3.962,11.174.926,7.232,1.933,5.834,1.769,4.316,1.59,1.712-.893.472.344" transform="translate(22.917 91.245)" fill="#69a1ac"/><path d="M2.027,9.34h0A1.958,1.958,0,0,1,.555,8.815a2.661,2.661,0,0,1-.551-2C.122,3.651,8.891.654,11.66.135A7.824,7.824,0,0,1,13.1,0a13.145,13.145,0,0,1,5.885,1.862l.025.013a13.244,13.244,0,0,0,5.972,1.876,8.223,8.223,0,0,0,1.789-.2,23.375,23.375,0,0,0,3.247-1.071A16.87,16.87,0,0,1,34.5,1.212c.25-.022.5-.034.732-.034A7.762,7.762,0,0,1,39.7,2.757a16.613,16.613,0,0,0,2.52,1.36,4.613,4.613,0,0,0,1.816.361,10.344,10.344,0,0,0,1.32-.11l.03,0a11.032,11.032,0,0,1,1.41-.113c.135,0,.269,0,.4.013,1.337.085,2.183.535,2.321,1.234.151.762-.586,1.643-1.924,2.3a6.375,6.375,0,0,1-2.827.723,8.607,8.607,0,0,1-4.412-1.629A10.721,10.721,0,0,0,36,5.127a6.6,6.6,0,0,0-.7-.037,15.285,15.285,0,0,0-5.681,1.569l-.091.038A15.878,15.878,0,0,1,23.579,8.3c-.11,0-.221,0-.33-.007a14.219,14.219,0,0,1-5.4-1.579,11.521,11.521,0,0,0-4.769-1.375,7.229,7.229,0,0,0-2.759.571c-.332.135-.867.427-1.544.8C6.865,7.758,3.97,9.34,2.027,9.34Z" transform="translate(51.363 81.281)" fill="#69a1ac"/><path d="M6.658,12.444h0a6.016,6.016,0,0,1-4.12-1.9A8.718,8.718,0,0,1,.155,6.3a5.628,5.628,0,0,1,.25-3.438A5.115,5.115,0,0,1,3.116.249,3.068,3.068,0,0,1,4.395,0,10.188,10.188,0,0,1,10.16,2.5a5.433,5.433,0,0,1,1.692,4.152,6.191,6.191,0,0,1-2.1,4.59A4.728,4.728,0,0,1,6.658,12.444ZM4.71,3.9a2.579,2.579,0,0,0-.241,2.741C4.881,7.68,5.621,8.353,6.354,8.353a1.263,1.263,0,0,0,.273-.03c.762-.169,1.183-.471,1.252-.9C8.1,6.046,4.744,3.918,4.71,3.9Z" transform="translate(111.766 80.077)" fill="#69a1ac"/><path d="M37.794.033C28.169.035,18.46-.167,8.849.4,7.231.5,1.069.192.236,1.883-1.289,4.976,5.051,3.44,5.972,3.348,25.11,1.432,45.1,2.534,64.3,3.08c15.7.446,31.323.724,47.008,1.533q6.184.319,12.362.7c1.343.081,4.722.971,5.005-1.174.262-1.985-3.954-1.537-5.007-1.592Q111.109,1.882,98.555,1.17C78.4.033,57.978.029,37.794.033" transform="translate(4.683 129.888)" fill="#89c5cc"/><path d="M1.391.989C-.407,2.776.436,9.6.386,11.855.3,15.8.112,19.742.028,23.685c-.087,4.122.034,8.263.278,12.378.1,1.728,1.521,10.08,3.754,5.3,1-2.136-.024-8.085-.009-10.505.027-4.4.265-8.791.484-13.189.188-3.781.2-7.566.361-11.348.052-1.206.2-9.044-3.5-5.333" transform="translate(3.219 132.371)" fill="#89c5cc"/><path d="M131.962.008c-9.366.96-18.883.506-28.286,1.215-8.1.611-16.2.861-24.323,1.033-18.4.388-36.824.767-55.167,2.3-4.18.349-8.356.72-12.547.907C9.543,5.557.747,4.6.092,6.813c-1.116,3.763,8.291,2.274,10.32,2.215,4.462-.129,8.9-.451,13.352-.79,18.7-1.425,37.478-1.851,56.221-2.443,10.194-.322,20.317-1.068,30.488-1.746,5.07-.338,10.153-.349,15.222-.677,1.326-.086,6.021.083,6.975-.984.656-.733.821-2.522-.708-2.379" transform="translate(3.018 168.587)" fill="#89c5cc"/><path d="M0,2.744C.324,11.726.831,20.7,1.134,29.683c.091,2.7-.725,7.542.78,9.924,2.418,3.83,4.306-.223,4.749-2.61,1.4-7.533-.1-15.855-.5-23.434-.149-2.892.749-9.327-.648-11.915C4.188-.817-.117-.569,0,2.744" transform="translate(131.802 131.257)" fill="#89c5cc"/><path d="M7.027,15.8a7.528,7.528,0,0,1-2.444-.447,6.7,6.7,0,0,1-2.705-1.828A7.469,7.469,0,0,1,.236,10.7,5.626,5.626,0,0,1,.8,6.311,8.222,8.222,0,0,0,1.615,3.7a4.576,4.576,0,0,0-.081-.939A3,3,0,0,1,1.674.674C2,.25,2.778.043,4.066.043,4.54.043,5,.069,5.407.092c.208.012.4.023.564.028A5.82,5.82,0,0,1,7.121,0a4.9,4.9,0,0,1,4.217,2.469A10.318,10.318,0,0,1,12.8,7.9a9.145,9.145,0,0,1-2.191,6.424A4.875,4.875,0,0,1,7.027,15.8ZM6.976,3.222h0C4.815,4.266,2.983,8.215,3.537,10.634a2.472,2.472,0,0,0,2.7,2,5.692,5.692,0,0,0,.8-.06,2.912,2.912,0,0,0,2.047-1.314,5.133,5.133,0,0,0,.776-2.539A7.09,7.09,0,0,0,9.217,5.3,3.693,3.693,0,0,0,6.976,3.222Z" transform="translate(109.104 143.571)" fill="#89c5cc"/><path d="M14.042,28.621h0A13.962,13.962,0,0,1,2.359,22.194a11.786,11.786,0,0,1-.28-11.842,1.372,1.372,0,0,1-.825.356c-.728,0-1.083-.973-1.23-1.553-.23-.909,1.207-2.5,2.159-3.557.219-.242.407-.451.537-.611C4.775,2.468,7.192.121,10.935.006,11.065,0,11.2,0,11.329,0a13.632,13.632,0,0,1,8.608,3.282,18.606,18.606,0,0,1,5.556,7.753,14.76,14.76,0,0,1,.873,7.6,11.19,11.19,0,0,1-3.751,6.709A12.832,12.832,0,0,1,14.042,28.621ZM10.69,6.569a3.2,3.2,0,0,0-.915.1A7.4,7.4,0,0,0,6.249,9.448a12.674,12.674,0,0,0-2,4.092,9.511,9.511,0,0,0,.724,7.374,9.34,9.34,0,0,0,5.946,4.2,12.153,12.153,0,0,0,3.057.4A9.725,9.725,0,0,0,19.4,23.971a8.188,8.188,0,0,0,3.343-4.681,10.423,10.423,0,0,0-1.359-8.943,17.424,17.424,0,0,0-7.2-5.844q.032.271.063.541t.063.541c-.249.905-1.191,1.027-2.08,1.027-.263,0-.541-.012-.785-.022h-.025C11.165,6.579,10.923,6.569,10.69,6.569Zm.2-3.166A6.731,6.731,0,0,0,6.766,4.962,8.382,8.382,0,0,1,10.893,3.4Z" transform="translate(11.861 134.998)" fill="#89c5cc"/><path d="M0,1.293a1.339,1.339,0,0,0,2.677,0A1.339,1.339,0,0,0,0,1.293" transform="translate(19.476 145.741)" fill="#89c5cc"/><path d="M0,1.314a1.361,1.361,0,0,0,2.72,0,1.361,1.361,0,0,0-2.72,0" transform="translate(24.044 146.014)" fill="#89c5cc"/><path d="M7.185.006C5.912.109,1.254-.323.437.791-.93,2.654,1.251,2.719,2.322,2.92c.965.181,5.159.079,5.75-.778.522-.757.4-2.246-.887-2.136" transform="translate(18.932 153.478)" fill="#89c5cc"/><path d="M1.721,9.315h0C1.05,9.315.532,8.853.139,7.9c-.823-1.989,2.234-4.586,3.239-5.44A6.477,6.477,0,0,1,7.729.646a8.634,8.634,0,0,1,2.61.459c.74.235,1.362.5,1.963.757a8.031,8.031,0,0,0,3.305.881,6.743,6.743,0,0,0,1.585-.2A23.033,23.033,0,0,0,20.45,1.4a15.9,15.9,0,0,1,4.78-1.38c.2-.015.4-.023.6-.023a15.672,15.672,0,0,1,5.339,1.273,23.626,23.626,0,0,0,3.546,1.093,12.18,12.18,0,0,0,2.366.238A15.484,15.484,0,0,0,42.621,1.4,14.5,14.5,0,0,1,47.844.2,11.774,11.774,0,0,1,51.45.815c.164.052.483.142.888.255C54.4,1.652,58.7,2.862,58.91,3.6a1.557,1.557,0,0,1-.1,1.378,1.572,1.572,0,0,1-1.314.465A13.135,13.135,0,0,1,53.821,4.6l-.006,0-.192-.065c-.5-.167-.972-.339-1.433-.505a14.427,14.427,0,0,0-4.978-1.174,8.347,8.347,0,0,0-2.316.334c-.876.25-1.693.519-2.483.78A19.749,19.749,0,0,1,36.03,5.307a13.4,13.4,0,0,1-1.773-.121,20.25,20.25,0,0,1-3.424-.881A15.126,15.126,0,0,0,26.3,3.348h-.054a14.263,14.263,0,0,0-5.45,1.524A20.848,20.848,0,0,1,17.065,6.2a6.044,6.044,0,0,1-1.277.136,11.25,11.25,0,0,1-3.614-.78l-.094-.032a10.457,10.457,0,0,0-3.325-.748,4.774,4.774,0,0,0-.807.068A7,7,0,0,0,5.457,6.764C4.237,7.96,2.855,9.315,1.721,9.315Z" transform="translate(39.409 147.343)" fill="#89c5cc"/></g><g transform="translate(287 64)" opacity="0.5"><path d="M5.163,101.346h0a18,18,0,0,1-2.074-.112c-1.436-.168-2.251-.477-2.564-.974-.341-.542-.091-1.27.226-2.193a13.206,13.206,0,0,0,.483-1.651C1.73,94,1.317,90.951.918,88,.7,86.425.5,84.935.449,83.6-.293,65.257.027,46.873.386,31.082c.086-3.8.194-7.668.3-11.406q.035-1.245.069-2.491c.009-.309.019-.623.03-.942a35.307,35.307,0,0,0-.06-4.95,3.785,3.785,0,0,0-.33-1.127C.134,9.558-.053,9.12.723,8.107c1.013-1.321,3.635-1.49,5.807-1.49.69,0,1.384.019,2.094.04l.145,0c.625.019,1.215.036,1.742.036.46,0,.828-.014,1.124-.042,4.228-.408,8.151-.7,11.993-.906C35.712,5.114,47.979,4.295,59.842,3.5,85.63,1.782,112.3,0,138.65,0h2.341a63.134,63.134,0,0,1,13.942,1.1,22.187,22.187,0,0,0,2.9.532,3.731,3.731,0,0,0,.391.019c.18,0,.355-.01.525-.02h.009c.165-.009.335-.019.5-.019a2.627,2.627,0,0,1,1.049.19,3.965,3.965,0,0,1,2.322,2.954c.475,1.777.019,4.216-.423,6.575-.219,1.169-.425,2.272-.5,3.227-.324,4.028-.476,8.409-.463,13.393q0,.781,0,1.562a181.222,181.222,0,0,0,1,22.65c.24,1.868.508,3.757.767,5.583.7,4.941,1.424,10.046,1.664,15.166.082,1.728.145,3.487.206,5.187v.013c.087,2.42.177,4.923.322,7.387.025.424.023.861.022,1.324a10.876,10.876,0,0,0,.209,2.691,2.006,2.006,0,0,0,.729,1.041,1.2,1.2,0,0,1,.436.552c.3,1.226.406,2.042.026,2.59-.35.505-1.073.781-2.463,1.173-5.412,1.526-11.5,1.736-17.279,1.736-1.174,0-2.327-.009-3.442-.017l-.332,0c-1.027-.007-2-.014-2.975-.014h-.158c-19.825.011-37.692.059-55.606.548-5.441.149-10.986.235-16.349.318-12.752.2-25.938.4-38.828,1.465-3.029.25-6.1.55-9.08.839-1.166.114-2.367.231-3.549.343-1.287.122-2.639.321-4.07.532A51.825,51.825,0,0,1,5.163,101.346ZM58.924,33.053c4.073,0,8.432,1.439,13.327,4.4a97.488,97.488,0,0,1,11.54,8.632l.565.469c1.307,1.084,2.62,2.194,3.89,3.267,2.877,2.432,5.852,4.946,8.9,7.283l.6.459.1.079c2.577,1.98,5.243,4.027,8.009,5.812a6.846,6.846,0,0,0,3.6,1.411c1.361,0,2.63-.8,4.587-2.1.679-.451,1.357-.909,2.014-1.353a74.938,74.938,0,0,1,8.324-5.111,25.594,25.594,0,0,1,9.4-2.768c.641-.053,1.3-.08,1.972-.08,4.207,0,11.157,1.091,20.375,6.289a166.865,166.865,0,0,1-2.39-43.186c.166-2.475.439-4.963.71-7.282.026-.224.1-.575.194-.981a6.321,6.321,0,0,0,.27-2.776c-.509-1-2.355-1.132-3.906-1.132-.415,0-.82.009-1.267.021l-.067,0c-.388.01-.752.019-1.081.019-.145,0-.273,0-.391-.005-1.9-.059-3.866-.088-6-.088-4.838,0-9.759.153-14.517.3-2.163.067-4.4.137-6.59.191-19.575.482-40.067,1.568-60.908,3.23-7.747.618-15.633,1.062-23.259,1.492-8.9.5-18.1,1.021-27.136,1.818-3.36.3-3.362.58-3.384,3.3,0,.319-.005.68-.014,1.076-.02.915-.044,1.844-.067,2.743v.007l-.014.547c-.12,4.712-.252,9.738-.422,14.812C5.668,40.162,5.329,46.573,5,52.772c-.19,3.586-.386,7.292-.555,10.938,5.079-3.108,9.992-6.652,14.743-10.081,4.578-3.3,9.313-6.719,14.2-9.746,7.04-4.363,13.985-8.436,21.555-10.342A16.329,16.329,0,0,1,58.924,33.053Z" transform="translate(0.129 0.302)" fill="#69a1ac"/><path d="M.073,2.3c0,2.788-.438,6.9.848,9.528,1.631,3.33,3.67,2.289,4.211-.84.309-1.793.3-7.1-.274-8.688C4.042.048.073-1.484.073,2.3" transform="translate(117.414 17.057)" fill="#89c5cc"/><path d="M12.93.02C10.312.112,2.689-.516.918,1.589-2.12,5.2,3.168,5.838,5.439,5.636c2.628-.234,10.748.337,12.508-1.77C20.891.34,14.988-.055,12.93.02" transform="translate(109.236 20.409)" fill="#89c5cc"/><path d="M15.619,26.658h0a16.651,16.651,0,0,1-9.027-2.89,14.942,14.942,0,0,1-5.921-7.1A11.943,11.943,0,0,1,1.741,6.574,13.516,13.516,0,0,1,5.477,2.449,12.385,12.385,0,0,1,10.7.244,17.732,17.732,0,0,1,13.641,0a16.243,16.243,0,0,1,8.145,2.08A11.791,11.791,0,0,1,27.14,8.457a13.324,13.324,0,0,1,.67,5.13,15.99,15.99,0,0,1-1.2,5.189A14.444,14.444,0,0,1,23.762,23.2a11.068,11.068,0,0,1-4.3,2.827A11.492,11.492,0,0,1,15.619,26.658Zm-1.007-21a12.456,12.456,0,0,0-5.463,1.35A8.272,8.272,0,0,0,5.22,10.851a5.178,5.178,0,0,0-.007,4.237c1.175,2.766,4.511,5.053,7.3,6.093a8.982,8.982,0,0,0,3.128.608,6.357,6.357,0,0,0,4.85-2.156,8.458,8.458,0,0,0,2.043-4.921A8.139,8.139,0,0,0,15.469,5.7C15.194,5.673,14.905,5.66,14.612,5.66Z" transform="translate(5.113 107.88)" fill="#89c5cc"/><path d="M46.786.024c-2.865.238-5.341,2.244-8.224,2.6-2.7.332-4.93-.59-7.454-1.328A16.284,16.284,0,0,0,22.141.8c-2.383.605-4.733,2.226-7.207,2.422C10.064,3.61,4.4-1.946.6,4.338c-1.823,3.013.824,4.953,3.55,3.548C6.994,6.422,5.6,5.9,9.124,6.763c2.942.721,5.319,1.113,8.266.1C20.059,5.95,22.4,4.274,25.3,4.086c2.84-.184,5.312,1.11,8.027,1.668a17.592,17.592,0,0,0,9.457-.88c3.009-1,4.21-1.54,7.246-.652,1.923.562,6.123,2.349,7.995.909,3.236-2.489-1.1-2.853-2.8-3.207-2.747-.569-5.589-2.134-8.44-1.9" transform="translate(39.03 115.608)" fill="#89c5cc"/><path d="M10.989,20.427h0A10.524,10.524,0,0,1,3.536,17.41,11.664,11.664,0,0,1,.1,10.643,9.4,9.4,0,0,1,1.346,4.322,10.129,10.129,0,0,1,7.427.068,2.153,2.153,0,0,1,8,0C9.8,0,13.141,1.558,14.5,2.43a10.927,10.927,0,0,1,4.343,5.163,10.944,10.944,0,0,1,.69,4.567,10.066,10.066,0,0,1-1.249,4.357A7.329,7.329,0,0,1,13,20.255,12.147,12.147,0,0,1,10.989,20.427ZM8.014,6.3a2.872,2.872,0,0,0-2.27,3.369,6.053,6.053,0,0,0,1.876,3.257,5.179,5.179,0,0,0,3.393,1.537c.055,0,.111,0,.165,0,1.649-.08,2.563-.842,2.573-2.144a6.2,6.2,0,0,0-1.811-3.824A6.2,6.2,0,0,0,8.014,6.3Z" transform="translate(140.558 107.068)" fill="#89c5cc"/><path d="M1.172,84.938c-.935-2.255.364-3.293,2.264-3.765a25.085,25.085,0,0,1-.2-5c-.1-2.875-.139-5.751-.249-8.625C2.723,60.7,2.548,53.812,2.02,46.979,1.516,40.448.242,34.115.205,27.535.181,23.084-1.056,11.808,2.841,8.785c6.7-3.909,4.05,9.882,3.939,12.269a142.377,142.377,0,0,0,.842,21.195c.662,6.544-.1,13.059-.354,19.6C7.133,65.327,7.06,68.8,6.8,72.266c-.081,1.082.044,5.956-.523,8.552.862-.037,1.7-.029,2.4-.022.486,0,.906.01,1.224,0,5.426-.164,10.853-.308,16.278-.512,20.87-.785,41.752-.429,62.618-1.421,19.736-.938,39.545-1.137,59.3-1.379a2,2,0,0,1,1.391,3.358c-1.085,1.364-6.115,1.065-7.683,1.192-5.563.446-11.115.648-16.695.7-11.75.112-23.456.616-35.186,1.284-20.843,1.188-41.717,1.09-62.571,1.939-5.062.205-10.124.359-15.188.492-1.355.036-3.822.467-6.1.467C3.852,86.917,1.824,86.51,1.172,84.938Zm150.76-18.324q-.659-11.4-1.678-22.8c-1.111-12.26-2.063-24.231-2.054-36.54,0-2.921,3.507-3.509,5.062-1.522,1.486,1.9.529,7.655.566,9.93.12,7.493.828,14.944,1.5,22.4.668,7.4,1.14,14.8,1.656,22.209.239,3.424,2.87,17.092-.955,19.087a2.546,2.546,0,0,1-1.168.33C151.3,79.714,152.056,68.766,151.932,66.614ZM2.994,7.8C1.743,7.288.732,6.574,1.419,5.058,1.985,3.812,4,3.922,5.523,4.033c.473.034.9.067,1.222.062,4.924-.1,9.837-.372,14.752-.673,11.16-.683,22.3-1.481,33.478-1.672C76.286,1.386,97.567.212,118.886.014c6.314-.059,12.594.052,18.9.414,2.8.16,5.592.315,8.39.434.515.022,1.241-.018,2.037-.057,1.7-.083,3.724-.167,4.691.345,5.566,2.945-5.773,3.268-7.152,3.245-5.785-.1-11.559-.548-17.343-.689-21.274-.523-42.709.772-63.964,1.643C54.219,5.769,44,5.828,33.778,6.4c-5.587.314-11.171.672-16.758.967-2.576.136-5.153.267-7.733.332-1.1.028-2.974.35-4.517.35A4.927,4.927,0,0,1,2.994,7.8Z" transform="translate(2.319 145.143)" fill="#69a1ac"/><path d="M2.424,49.072C1.065,49.041.149,48.75.007,47.1-.174,45,3.219,44.132,4.59,43.446q7.05-3.525,14.172-6.9c9.419-4.493,18.927-8.807,28.469-13.034l.165-.073q-7.938-2.686-15.917-5.25c-3.039-.978-24.35-6.237-23.573-9.06.873-3.164,19.747,4.3,22.65,5.222q10.72,3.416,21.364,7.068C68.935,13.77,86.13,5.626,103.876.064c1.118-.349,1.824.8,1.57,1.769-.339,1.294-4.32,2.342-5.425,2.835-4.37,1.952-8.763,3.856-13.135,5.809-9.521,4.255-19.061,8.47-28.581,12.727l-.56.251q10.041,3.569,19.977,7.425c3.546,1.37,7.073,2.784,10.611,4.173,1.772.7,9.141,2.443,9.565,4.212.6,2.5-7.257-.571-8.507-.97-3.53-1.129-7.016-2.391-10.5-3.648-7.8-2.81-15.567-5.709-23.4-8.434l-2.2-.762q-12.469,5.6-24.876,11.332-6.65,3.081-13.241,6.284c-3.233,1.566-9.06,6.007-12.659,6.007Z" transform="translate(28.297 164.156)" fill="#89c5cc"/><path d="M13.02,24.6a12.628,12.628,0,0,1-8-2.546,8.491,8.491,0,0,1-2.858-4.181,9.585,9.585,0,0,1-.2-3.953,2.615,2.615,0,0,1-.384.03,1.734,1.734,0,0,1-1.56-.9c-.3-3.7,3.089-6.936,5.135-8.536A21.969,21.969,0,0,1,14.643.077,9.669,9.669,0,0,1,15.85,0a10.514,10.514,0,0,1,7.614,3.472,12.619,12.619,0,0,1,3.5,9.141A11.989,11.989,0,0,1,23.3,20.789a14.071,14.071,0,0,1-8.24,3.7A17.877,17.877,0,0,1,13.02,24.6ZM15.936,3.9a1.908,1.908,0,0,0-2.076,1.146,3.3,3.3,0,0,1-1.569,1.534,2.693,2.693,0,0,1-1.14.156,3.189,3.189,0,0,0-1.407.215A6.959,6.959,0,0,0,7.183,9.869l-.064.108c-1.633,2.74-1.987,5.529-.972,7.649.9,1.887,2.788,3.083,5.451,3.46a13.053,13.053,0,0,0,1.826.129A11.487,11.487,0,0,0,20.1,19.2a8.257,8.257,0,0,0,3.465-5.954,8.511,8.511,0,0,0-1.661-6.008,8.382,8.382,0,0,0-5.283-3.3C16.375,3.913,16.143,3.9,15.936,3.9Z" transform="translate(6.483 237.199)" fill="#89c5cc"/><path d="M8.116.977C5.733,2.24,1.964,4.18.567,6.578c-1.476,2.533.052,5.3,3.162,4.106C6.2,9.733,7.768,6.71,10.4,5.741c2.324-.855,3.261-.419,5.717.432C18.65,7.05,20.862,7.9,23.6,7.683c3.439-.27,6.417-2.264,9.783-2.718,2.834-.382,5.171.721,7.885,1.159,3.149.509,5.208-.683,8.154-1.3,2-.422,5.536,1.3,7,.653,3.287-1.445-.19-3.212-2.01-3.8-3.065-.983-4.951-.115-7.866.7-3.165.885-4.532.22-7.558-.593C32.863.14,28.135,4.117,22.333,3.394,16.961,2.724,13.747-2,8.116.977" transform="translate(38.73 244.298)" fill="#89c5cc"/><path d="M10.238,18.821h0a13.452,13.452,0,0,1-4.6-.8A9.665,9.665,0,0,1,1.871,15.6,6.969,6.969,0,0,1,.026,10.112a9.294,9.294,0,0,1,3.72-6.955A17.734,17.734,0,0,1,11.221.163,8.652,8.652,0,0,1,12.857,0a6.319,6.319,0,0,1,5.134,2.48A9.8,9.8,0,0,1,19.9,8.144a11.41,11.41,0,0,1-1.985,6.968,8.761,8.761,0,0,1-6.676,3.67C10.91,18.808,10.573,18.821,10.238,18.821Zm2.54-14.212c-2.482,0-5.652.836-7.14,2.7A4.876,4.876,0,0,0,4.417,11,3.849,3.849,0,0,0,6.182,13.6a6.892,6.892,0,0,0,3.9,1.293,5.622,5.622,0,0,0,3.217-1,5.559,5.559,0,0,0,2.015-2.53,5.411,5.411,0,0,0,.216-3.3,7.026,7.026,0,0,0-2.123-3.43C13.2,4.615,12.993,4.609,12.778,4.609Z" transform="translate(133.53 237.709)" fill="#89c5cc"/></g><path d="M17.139.006C12.736.091,1.863,1.692.247,6.9-.98,10.854,2.665,9.986,4.618,8.548a18.472,18.472,0,0,1,8.235-3.7C25.326,2.59,37.311,10.681,49.665,11.7c4.68.388,10.327.64,14.795-.875,3.182-1.079,3.6-3.432-.034-3.791-3.085-.3-6.5.655-9.662.628C41.675,7.554,30.04-.24,17.139.006" transform="translate(545 96)" fill="#c1dee2" opacity="0.5"/><g transform="translate(44 343)" opacity="0.5"><path d="M53.307.032Q40.671.174,28.055.969c-8,.507-16.67.122-24.536,1.672-2.233.44-5.25,2.475-2.281,4.714,2.087,1.574,9.724-.237,12.216-.39C22.634,6.4,31.818,5.726,41.01,5.4c8.7-.308,17.4-.416,26.11-.5,1.329-.013,3.536-.439,4.859-.053,1.9.555,1.451.706,1.593,3.12.258,4.374.187,8.764.1,13.142-.084,4.237-.241,8.473-.225,12.712.011,3.024-.956,9.033.561,11.66,2.184,3.78,4.45-.326,4.613-2.838.312-4.8.172-9.668.174-14.479,0-4.516.033-9.031-.126-13.544-.115-3.26.351-8.951-1.406-11.915C75.475-.317,71.169.334,68.026.19c-4.9-.225-9.813-.21-14.719-.159" transform="translate(2.202 0.33)" fill="#89c5cc"/><path d="M1.373,2.563C1.383,11.047.4,19.475.126,27.949c-.126,3.9-.382,8.175.6,12,.995,3.862,4.155,4.7,4.519.387.737-8.73.556-17.783,1.13-26.584.2-3.107,1.521-8.8.29-11.711-1.084-2.563-5.3-3.054-5.3.522" transform="translate(0.536 3.247)" fill="#89c5cc"/><path d="M78.11.013C63.48,1.949,48.186,1.243,33.451,1.548c-7.069.146-14.137.155-21.207.229C9.777,1.8,3.511.864,1.377,2.251c-3.4,2.208.289,3.912,2.538,3.961,13.952.306,28.06-.336,42.009-.794,6.267-.206,12.555-.306,18.806-.839A66.285,66.285,0,0,0,76.52,2.9c.8-.221,2.53-.175,2.708-1.261.11-.672-.089-1.768-1.118-1.626" transform="translate(2.796 43.195)" fill="#89c5cc"/><path d="M18.368.429C14.3.453,2.049-1.436.365,2.529-1.88,7.817,6.877,6.583,9.233,6.522c5.349-.137,10.7-.152,16.046-.15,5.25,0,10.5-.032,15.749-.156,1.521-.037,5.061.595,5.935-1.237a2.306,2.306,0,0,0-1.087-3.226c-2.951-1.773-10.616-.745-14.07-.9C27.333.642,22.846.429,18.368.429" transform="translate(1.703 55.111)" fill="#89c5cc"/><path d="M10.541.264C8.218.4,3.517-.555,1.436.508-.93,1.717-.1,3.61,1.946,4.441c1.415.576,7.217.274,8.6-.393,1.436-.7,3.06-3.972,0-3.784" transform="translate(58.995 56.255)" fill="#89c5cc"/><path d="M2.047.008C-.435.689.318,14.779.254,17.013c-.175,6.12-.863,13.817,1.17,19.71,1.3,3.757,3.787,3.248,3.363-.708-.373-3.472-1.012-6.9-1.289-10.4C2.872,17.71,2.021,9.276,2.612,1.363c.252.46,2.606,4.725,3.16,4.407C5.6,5.868,3.056-.258,2.047.008" transform="translate(92.966 6.634)" fill="#89c5cc"/><path d="M31.422.077C26.4.151,21.377.24,16.356.379,12.364.49,6.09-.165,2.429,1.514c-4.36,2-2.291,6.455,1.8,6.549,3.622.084,7.485-.733,11.141-.859,9.873-.338,19.764-.41,29.642-.495,8.933-.077,18.246.876,27.1-.466,1.313,11.663-2.239,23.375-1.031,35.172.187,1.831.1,4.418,2.435,4.835,2.943.527,3.064-2.388,3.175-4.475.319-5.959.146-11.923.582-17.89.4-5.53,1.2-11.181.528-16.72C76.978.35,73.713.9,67.939.613,55.746.015,43.629-.1,31.422.077" transform="translate(91.508 1.377)" fill="#89c5cc"/><path d="M9.082.145C6.522.209,2.272-.58.632,1.874c-1.706,2.553.318,4.78,2.8,5.3,2.937.62,6.766-.23,9.814-.239,3.174-.009,6.349.026,9.523.039,13.608.053,27.275.259,40.873-.3,1.9-.078,7.289.559,8.6-1.263,1.167-1.616.351-3.065-1.186-3.888-2.52-1.35-7.7-.837-10.5-.944C57.1.448,53.63.4,50.167.351,36.495.14,22.752-.194,9.082.145" transform="translate(97.016 42.722)" fill="#89c5cc"/><path d="M19.129,0C14.037.087,8.6-.137,3.561.636-.872,1.315-1.418,5.6,3.354,6.1c4.386.461,9.7-.4,14.109-.683,1.565-.1,3.385.042,4.136-1.688A2.78,2.78,0,0,0,19.129,0" transform="translate(98.48 54.67)" fill="#89c5cc"/><path d="M12.31.353c-2.718.068-10.658-1.1-12,2C-1.935,7.525,8.812,5.561,10.874,5.485,13.473,5.39,23.6,6.907,23.6,2.77c0-4.057-8.8-2.479-11.294-2.417" transform="translate(143.799 54.767)" fill="#89c5cc"/><path d="M.189,3.2C.2,12.606-.39,22.1.468,31.475c.355,3.879.294,11.31,2.541,14.6,1.595,2.334,3.807,2.171,4.678-.632.582-1.874-.349-5.621-.453-7.625-.1-1.924-.217-3.847-.306-5.771-.229-4.957-.21-9.907-.142-14.867C6.844,12.923,7.868,7.295,6.9,3.2,6-.61.189-1.5.189,3.2" transform="translate(1.281 77.601)" fill="#69a1ac"/><path d="M92.929.318c-16.313.409-32.663.044-48.961.851-8.038.4-16.045,1.272-24.042,2.144C16,3.742,12.07,4.183,8.147,4.667c-1.184.146-11.019.527-7.32,4.267,1.615,1.633,6.756-.073,8.79-.314,3.938-.465,7.884-.87,11.828-1.287C28.949,6.539,36.463,5.787,44,5.37c17.749-.983,35.572-.688,53.339-1.344,4.806-.177,9.6-.3,14.406-.115,1.262.05,10.54.521,6.512-2.905-1.9-1.621-9.086-.784-11.466-.833-4.62-.1-9.242.029-13.86.145" transform="translate(3.038 72.214)" fill="#69a1ac"/><path d="M.008,56.03c-.379-5.344,13.029-5.335,16.863-5.692,16.461-1.531,33.193-1.209,49.705-.978,7.985.111,15.954.355,23.933-.133s16.211-.359,24.123-1.217c-1.02-3.951-.87-8.892-1.156-12.929-.734-10.365-.537-20.766-1.011-31.141-.208-4.571,6.018-5.264,7.865-1.563,1.866,3.737.653,11.153.774,15.3.279,9.594,2.058,20.335.179,29.823-.654,3.3-3.438,5.035-5.29,3.235l-.008.012c-.7,1.027-2.866,1.025-4.464,1.023-.44,0-.837,0-1.148.02-4.377.3-8.672.8-13.011,1.45a208.9,208.9,0,0,1-25.951,2.308c-17.281.428-34.633.028-51.889,1.211A94.731,94.731,0,0,0,8.179,58.19a26.115,26.115,0,0,1-4.765.779C1.653,58.97.171,58.34.008,56.03Z" transform="translate(5.38 71.403)" fill="#69a1ac"/><path d="M3.33.661C1.126.96-.712,2.847.272,5.239,1.511,8.251,5.2,7.074,7.641,6.883c7.75-.607,15.842.605,23.5-.309,2.091-.25,5.125-1.389,3.247-4.2C32.975.264,27.833.634,25.648.432A116.59,116.59,0,0,0,3.33.661" transform="translate(128.078 78.032)" fill="#c1dee2"/><path d="M11.636.108C8.631.31,1.634.151.367,3.571-1.9,9.706,6.995,7.544,9.7,7.2c3.148-.405,10.568.68,12.244-2.372,3-5.458-7.675-4.9-10.311-4.715" transform="translate(132.852 91.726)" fill="#c1dee2"/><path d="M1.07,1.325a3.941,3.941,0,0,0,0,5.4C2.818,8.472,6.628,8.109,8.925,8.237c3.2.179,12.407,1.874,14-1.9C25.07,1.247,16.736,1.353,14,1.064,10.827.731,3.7-1.3,1.07,1.325" transform="translate(135.689 103.973)" fill="#c1dee2"/><path d="M0,4.114c0,5.473,8.548,5.473,8.548,0C8.548-1.33,0-1.413,0,4.114" transform="translate(24.437 14.045)" fill="#89c5cc"/><path d="M0,4.7c0,6.257,9.736,6.244,9.736,0S0-1.6,0,4.7" transform="translate(40.651 13.52)" fill="#89c5cc"/><path d="M2.12.084C-2.613,1.391,1.747,5.4,3.944,6.318,7.437,7.775,12.2,8.848,15.7,6.665c1.39-.869,2.518-2.024,1.5-3.71-1.085-1.8-2.571-1-4.224-.831A12.96,12.96,0,0,1,7.167,1.63c-1.509-.5-3.4-2-5.047-1.546" transform="translate(28.723 26.456)" fill="#89c5cc"/><path d="M0,2.776c0,3.7,5.748,3.7,5.748,0S0-.925,0,2.776" transform="translate(116.69 15.729)" fill="#89c5cc"/><path d="M0,3.085C0,7.2,6.386,7.2,6.386,3.085S0-1.028,0,3.085" transform="translate(129.402 15.978)" fill="#89c5cc"/><path d="M13.646.179C10.291.612.59,1.6.047,5.73c-.837,6.379,9.793,1.216,12.219.715A35.165,35.165,0,0,1,21.2,6.1c1.694.068,3.946.342,3.769-2.238C24.678-.377,16.578-.2,13.646.179" transform="translate(115.283 27.809)" fill="#89c5cc"/><path d="M4.406.083C1.974.732-1.206,4.935.466,7.507c2.743,4.219,3.952-2.259,5.1-2.882,2.089-1.135,3.784,3.011,5.967.836C14.978,2.03,6.574-.5,4.406.083" transform="translate(40.186 86.731)" fill="#69a1ac"/><path d="M9.436,0C6.553.027.466,4.109.035,7.123A2.981,2.981,0,0,0,2.9,10.659c2.629.032,3.464-3.386,5.743-4.1,2.458-.771,2.093,1,4.216,1.925,1.554.674,3.5.392,4.036-1.518C17.91,3.362,12.4-.056,9.436,0" transform="translate(63.014 83.695)" fill="#69a1ac"/><path d="M1.456.445c-4.612,2.7,2.977,8.5,5.607,9.22,3.971,1.093,11.965-.947,12.906-5.8C20.343,1.935,19.135.187,17,.532c-1.754.285-2.88,2.486-4.5,3.274A5.03,5.03,0,0,1,6.492,3.2C4.974,1.891,4.161-1.133,1.456.445" transform="translate(48.924 100.509)" fill="#69a1ac"/><path d="M40.023.393c-4.12.879-8.309.289-12.449,1.115-4.222.843-6.745,2.438-10.667.831l-.553-.234C13.318.8,10.136.411,6.958,2.5c-1.881,1.233-7.589,5.5-6.9,8.1C1.548,16.24,7.972,7.391,9.61,6.529c3.124-1.645,5.265.456,8.481,1.049,3.852.71,6.951-1.325,10.58-2.136,4.244-.948,9.018-1.278,13.335-1.786,1.706-.2,8.166,1.149,8.75-.974C51.757-.964,41.642.05,40.023.393" transform="translate(13.699 140.492)" fill="#c1dee2"/><path d="M16.26,20.2h0c-3.071,0-5.532-.1-7.744-.314A11.824,11.824,0,0,1,4.1,18.859,5.171,5.171,0,0,1,1.561,15.4a49,49,0,0,1-1.4-6.552C-.249,5.565.116,3.623,1.249,3.075a2.643,2.643,0,0,1,1.176-.221c.231,0,.469.015.66.027l.025,0c.208.013.4.026.587.026a2.315,2.315,0,0,0,.416-.032c.991-.182,2-.447,3.075-.727a36.461,36.461,0,0,1,4.265-.934C15.523.666,19.945.293,24.971.076l.062,0C25.844.039,26.764,0,27.755,0a18.916,18.916,0,0,1,5.584.678A5.841,5.841,0,0,1,37.25,3.83c.614,1.431.663,3.746.14,6.516a22.484,22.484,0,0,1-2.1,6.269c-1.759,3.145-5.247,3.578-8.755,3.578-.657,0-1.328-.016-1.92-.029h-.038c-.626-.015-1.217-.028-1.8-.028l-.395,0-1.686.023h-.022C19.231,20.182,17.735,20.2,16.26,20.2ZM4.5,5.153h0c.078.5.131,1.439.191,2.531.153,2.756.362,6.53,1.186,7.459.786.887,3.568.915,5.231.931.414,0,.771.008,1.017.023,2.622.163,5.295.242,7.879.318,1.085.032,2.208.065,3.311.1.575.02,1.35.119,2.17.224a30.515,30.515,0,0,0,3.671.32,5.171,5.171,0,0,0,2.243-.377c1.007-.5,2.157-2.613,2.93-5.384.855-3.067.95-5.77.24-6.886a3.967,3.967,0,0,0-2.4-1.532,14.434,14.434,0,0,0-3.785-.416,60.5,60.5,0,0,0-8.53.847c-.973.146-1.813.272-2.419.333a39.473,39.473,0,0,0-3.979.741A35.075,35.075,0,0,1,6.63,5.434,6.917,6.917,0,0,1,4.5,5.153Z" transform="translate(77.55 137.016)" fill="#c1dee2"/><path d="M23.172,24.947h0a126.216,126.216,0,0,1-14.053-.718C6.286,23.913,4.47,23.3,3.23,22.254,1.852,21.086,1.093,19.285.842,16.588c-.058-.626-.162-1.371-.282-2.233C-.015,10.218-.886,3.967,2.327,1.917,4.735.381,9.561.229,13.085.118,13.9.092,14.676.068,15.338.03,15.714.01,16.109,0,16.51,0A52.992,52.992,0,0,1,23.1.566c1.789.228,3.639.465,5.432.541,3.078.131,5.015.375,6.434,1.29,1.437.926,2.289,2.5,2.941,5.448A5.313,5.313,0,0,0,38.3,8.912,3.9,3.9,0,0,1,38.75,10.6a22.43,22.43,0,0,1-.691,4.41c-.152.693-.3,1.346-.394,1.907-.5,2.875-1.544,4.882-3.189,6.134-1.535,1.168-3.638,1.749-6.616,1.827C26.258,24.925,24.681,24.947,23.172,24.947Zm4.2-6.992c-1.8.328-3.7.681-5.977,1.109l-1.124.212c.7.05,1.334.14,1.945.226a14.619,14.619,0,0,0,1.967.193A3.567,3.567,0,0,0,27.367,17.955ZM13.4,17.622h0l-.3.1-1.21.4-.009,0-.819.27c.892.11,1.739.208,2.589.3a2.076,2.076,0,0,1-.247-1.079ZM7.924,14.5a.477.477,0,0,0-.356.108.353.353,0,0,0-.081.272.662.662,0,0,0,.086.495.24.24,0,0,0,.186.075c.261,0,.712-.28,1.339-.833l-.034,0H9.013a3.784,3.784,0,0,1-.55-.06H8.454A3.661,3.661,0,0,0,7.924,14.5ZM23.482,6.876a.314.314,0,0,0-.25.138c-.179.141-.26.227-.247.263,0,.013.021.019.049.019a2.935,2.935,0,0,0,.629-.191c.07-.026.13-.048.172-.062A.579.579,0,0,0,23.482,6.876Zm8.4-1.462c.848,1.231,1.258,1.327,1.363,1.327a.134.134,0,0,0,.142-.14C33.415,6.28,32.922,5.589,31.882,5.414Z" transform="translate(121.937 134.058)" fill="#89c5cc"/></g><g transform="translate(297 339)" opacity="0.5"><path d="M22.211,38.531h0a23.231,23.231,0,0,1-6.073-.825,24.873,24.873,0,0,1-5.663-2.318,23.507,23.507,0,0,1-4.828-3.575,19.814,19.814,0,0,1-3.569-4.6A15.8,15.8,0,0,1,0,19.161a17.618,17.618,0,0,1,2.831-9C1.7,9.932,1.085,9.52,1,8.94.769,7.356,4.475,5.007,5.4,4.511l.333-.178c3.2-1.71,6.5-3.477,10.027-4A30.08,30.08,0,0,1,20.218,0,27.961,27.961,0,0,1,31.839,2.412a20.314,20.314,0,0,1,4.927,3.163,17.058,17.058,0,0,1,3.708,4.6A16.052,16.052,0,0,1,42.4,16.652a18.8,18.8,0,0,1-.688,6.654,21.853,21.853,0,0,1-2.846,6.152,21.5,21.5,0,0,1-4.546,4.97A19.274,19.274,0,0,1,22.211,38.531Zm-2.4-33.905A16.7,16.7,0,0,0,7.346,10.064,13.164,13.164,0,0,0,4.661,14.8a13.377,13.377,0,0,0-.467,5.827,16.029,16.029,0,0,0,6.019,10.225,18.826,18.826,0,0,0,5.294,3.027,16.943,16.943,0,0,0,5.921,1.1c.355,0,.711-.012,1.061-.037a16.82,16.82,0,0,0,10.273-4.583A16.886,16.886,0,0,0,38,20.375a11.771,11.771,0,0,0-2.671-9.619,16.659,16.659,0,0,0-6.758-4.529,25.255,25.255,0,0,0-8.382-1.6C20.062,4.627,19.937,4.626,19.814,4.626Z" transform="translate(51.847 0.284)" fill="#89c5cc"/><path d="M0,2.658C0,6.2,5.5,6.2,5.5,2.658S0-.886,0,2.658" transform="translate(65.459 14.104)" fill="#89c5cc"/><path d="M0,2.881c0,3.842,5.963,3.842,5.963,0S0-.96,0,2.881" transform="translate(75.657 14.448)" fill="#89c5cc"/><path d="M.05,1C-.753,3.91,8.4,5.4,8.7,2.031,8.847.42.608-1.038.05,1" transform="translate(68.725 23.932)" fill="#89c5cc"/><path d="M1.04,6.014c10.529-1.263,21.386-.68,31.966-.377,2.648.077,5.3.151,7.944.195,1.683.028,5.319.836,6.789.048,6.017-3.227-5.786-4.787-7.458-4.936A364.534,364.534,0,0,0,2.96.178C-.161.3-.836,6.239,1.04,6.014" transform="translate(94.559 17.112)" fill="#89c5cc"/><path d="M142.615,55.529c.09-11.032.486-22.139,1.334-33.138.345-4.483.76-8.961,1.1-13.444.162-2.112.912-5.07-.329-6.923a3.783,3.783,0,0,0-5.776-.614c-2.024,2.62-1.436,7.018-1.688,10.187-.387,4.873-.855,9.743-1.087,14.627a224.357,224.357,0,0,0,.205,28.509,86.543,86.543,0,0,0,2.171,13.144c.471,1.977,4.219,10.786,3.431,12-1.221,1.884-10.246,1.172-12.2,1.224-5.024.135-10.049.223-15.074.319q-6.453.123-12.907.179c-1.708.015-11.746-.289-9.52,2.244C67.376,85.58,42,82.683,17.253,81.689c-1.25-.051-3.3-.405-5.183-.507a16.482,16.482,0,0,1-.458-2.293c-.325-3.977-.41-7.968-.763-11.945-.645-7.275-1.9-14.477-2.641-21.74S7.541,30.672,7.108,23.4c-.074-1.246-.249-11.454-2.825-13.934A11.694,11.694,0,0,0,8.608,9.9C17.788,9.156,26.9,7.561,36,6.192c2.6-.391,8.513-.114,10.673-1.416C48.545,3.649,49.285-.3,46.033.018,36.957.991,27.931,2.5,18.927,3.985c-2.408.4-4.811.822-7.212,1.256-1.6.29-5.838.268-7.082,1.235C3.121,7.65,2.961,8.448,3.473,8.98c-.712-.2-1.565.112-2.59,1.137C-1.055,12.639.767,18.849,1,21.806c.278,3.547.414,7.1.576,10.653A176.593,176.593,0,0,0,3.712,52.91c1.24,7.611,2.294,15.252,3.537,22.86A52.9,52.9,0,0,0,8.533,81.6c-3.349,1.713-1.072,4.437,1.584,4.92l.058.009c.828,2.019,1.986,3.89,2.89,1.184a2.674,2.674,0,0,0,.11-.75c6.859.776,14.4.294,21.152.57,14.628.6,29.346,1.495,43.989,1.04A169.949,169.949,0,0,0,95.674,87.1c3.368-.453,6.748-.994,10.062-1.745.237-.053.6-.11,1.015-.179l.2,0q7.611-.115,15.215-.423c4.256-.177,8.531-.268,12.773-.669,2.635-.25,8.2-.2,9.821-2.853,1.471-2.41-.988-8.616-1.338-11.323a105.722,105.722,0,0,1-.81-14.377" transform="translate(0.365 19.939)" fill="#c1dee2"/><path d="M53.776.025c-4.055.347-7.8,2.251-11.9,2.275-3.434.019-6.816-1.007-10.27-.855-4.051.177-6.28,2.8-9.828,3.673-2.825.7-4.6-1.465-7.09-2.422-3.137-1.208-5.455-.584-8.144,1.243C4.573,5.282-.035,8.295,0,11.01c.106,8.226,9.7-3.137,11.637-3.275,2.571-.183,5.442,2.747,8.177,2.914,3.616.221,5.935-2.11,9.264-2.959,3.367-.859,7.007.193,10.383.52,3.852.372,7.222-.486,10.948-1.405a22.117,22.117,0,0,1,10.357-.1c2.476.505,8.646,3.441,9.729-.334C71.971,1.234,56.611-.216,53.776.025" transform="translate(37.78 43.589)" fill="#89c5cc"/><path d="M41.369.011C33.061.817,24.7,1.524,16.356,1.751,12.741,1.849-1.155.3.077,4.893,1.133,8.832,20.044,6.352,23.9,6.052c4.252-.33,8.5-.792,12.729-1.327,1.5-.19,5.121.006,6.179-1.251,1.009-1.2.511-3.657-1.435-3.462" transform="translate(51.421 59.292)" fill="#89c5cc"/><path d="M9.23,18.8a8.521,8.521,0,0,1-6.651-3.325A11.74,11.74,0,0,1,0,8.395,8.27,8.27,0,0,1,1.916,2.686,8.682,8.682,0,0,1,8.373,0l.09,0A1.423,1.423,0,0,1,9.635.545,1.181,1.181,0,0,0,10.406,1h.024a1.5,1.5,0,0,0,.634-.321l.09-.061a1.8,1.8,0,0,1,.873-.382h.038c2.709.174,4.443.684,5.852,2.881A7.824,7.824,0,0,1,19.083,7.05a12.093,12.093,0,0,1-.661,4.358c-1.107,3.269-3.364,5.869-5.891,6.784A9.7,9.7,0,0,1,9.23,18.8ZM11.067,4.451a1.859,1.859,0,0,0-.989.3,3.315,3.315,0,0,1-1.7.456c-2.189.069-3.426,1.221-3.4,3.16A6.154,6.154,0,0,0,6.409,12a4.434,4.434,0,0,0,3.306,1.8,3.936,3.936,0,0,0,2.8-1.322,7.838,7.838,0,0,0,1.742-3.41c.224-.908.468-2.593-.4-3.669-.5-.621-.713-.638-1.092-.669a3.45,3.45,0,0,1-.7-.115A3.85,3.85,0,0,0,11.067,4.451Z" transform="translate(28.855 74.994)" fill="#89c5cc"/><path d="M7.729,17.015h0l-.17,0A7.328,7.328,0,0,1,2.1,14.449,8.914,8.914,0,0,1,.067,7.607C.605,3.224,3.34.83,8.673.075A7.568,7.568,0,0,1,9.715,0a5.529,5.529,0,0,1,4.169,1.772,9.011,9.011,0,0,1,1.977,6.736,10.27,10.27,0,0,1-2.276,5.849A7.449,7.449,0,0,1,7.729,17.015ZM6.531,6.1h0l.01,0a2.792,2.792,0,0,0-1,3.262,2.65,2.65,0,0,0,2.434,2.1,2.638,2.638,0,0,0,.936-.182,4.094,4.094,0,0,0,1.975-2.695,1.849,1.849,0,0,0-.319-1.711c.034.035.045.063.037.083s-.067.043-.164.043A12.732,12.732,0,0,1,8.2,6.555c-.671-.172-1.283-.343-1.544-.416L6.531,6.1Z" transform="translate(65.13 74.876)" fill="#89c5cc"/><path d="M6.95,20.118h0a6.591,6.591,0,0,1-4.858-1.981A7.683,7.683,0,0,1,.047,13.585,8.165,8.165,0,0,1,1.308,8.241,7.994,7.994,0,0,1,6.483,4.874,2.5,2.5,0,0,1,5.468,1.507,2.5,2.5,0,0,1,7.55,0c2.962,0,6.466,6.994,6.77,8.769a13.28,13.28,0,0,1-.451,6.83,7.039,7.039,0,0,1-1.788,2.712,6.673,6.673,0,0,1-3.145,1.583A9.348,9.348,0,0,1,6.95,20.118ZM9.125,10.3h0c-3.113.274-3.394,1.553-3.371,2.089a1.909,1.909,0,0,0,1.783,1.723,1.251,1.251,0,0,0,.935-.42c.385-.415.81-1.341.653-3.393Z" transform="translate(113.767 70.885)" fill="#89c5cc"/></g><path d="M10.021.286C7.024.819-.061,4.129,0,7.684c.1,5.549,6.118-.512,7.457-1.327,7.2-4.379,16.516,1.3,24.008,2.5,3.435.553,10.155,1.576,13.189-.726,5.4-4.094-7.083-3.069-8.673-3.234C27.344,4.008,18.75-1.273,10.021.286" transform="translate(430 419)" fill="#c1dee2" opacity="0.5"/><g transform="translate(579 371)" opacity="0.5"><path d="M.038,3.079c0,5.678-.29,11.474.757,17.084.317,1.7.567,4.952,2.359,5.833a2.733,2.733,0,0,0,3.992-1.954c.522-2.147-.623-5.359-.738-7.613-.159-3.078-.17-6.161-.171-9.243,0-2.226.731-5.807-1.9-6.952a3.162,3.162,0,0,0-4.3,2.844" transform="translate(2.548 6.189)" fill="#c1dee2"/><path d="M88.533.039C69.72,1.927,50.637,2.32,31.756,3.3c-8.728.455-19.275-.126-27.5,3.253C2.732,7.185-2.737,10.676,1.7,12.1c1.384.443,2.79-1.047,3.926-1.547a25.151,25.151,0,0,1,6.1-1.412c17.156-2.755,35.1-2.275,52.434-3.563,4.441-.33,8.885-.67,13.317-1.106,3.166-.311,9.822-2.594,12.744-1.426C95.217,5.038,95.1,18,95.2,22.455c.051,2.305-2.186,10.579,2.261,9.741,3.56-.671,2.271-9.267,1.993-11.619C98.726,14.414,97.484-.868,88.533.039" transform="translate(3.82 0.248)" fill="#c1dee2"/><path d="M92.91.008C76.569,1.484,59.852.036,43.444.616c-8.6.3-17.193.789-25.794,1.073-3.72.123-7.444.128-11.166.155C4.7,1.856-3.4,2.936,1.614,6.465c2.219,1.563,9.291.3,11.837.273,3.824-.045,7.647-.2,11.468-.354,8.852-.346,17.7-.826,26.556-1.065,8.472-.229,16.949-.279,25.421-.508a107.044,107.044,0,0,0,12.667-.859c.943-.139,4-.249,4.66-1.3.619-.994.184-2.787-1.312-2.643" transform="translate(6.381 32.137)" fill="#89c5cc"/><path d="M9.312,17.6h0a9.094,9.094,0,0,1-6.529-2.608A9.471,9.471,0,0,1,.035,9.169,8.084,8.084,0,0,1,1.621,3.505,9.846,9.846,0,0,1,7.892.038,2.314,2.314,0,0,1,8.3,0,2.869,2.869,0,0,1,9.616.388a3.191,3.191,0,0,0,1.06.368,3.009,3.009,0,0,0,.333.018,6.843,6.843,0,0,0,.986-.1,6.8,6.8,0,0,1,.992-.1,2.813,2.813,0,0,1,.8.109,5.962,5.962,0,0,1,2.8,1.933,9.739,9.739,0,0,1,1.7,2.98,9.093,9.093,0,0,1,.506,3.875,8.77,8.77,0,0,1-3.55,6.3,9.078,9.078,0,0,1-3.569,1.573A11.734,11.734,0,0,1,9.312,17.6ZM11.936,5.917h0C9.8,5.93,6.013,6.383,5.318,8c-.311.726.024,1.616.995,2.648a4.21,4.21,0,0,0,3.07,1.411A3.9,3.9,0,0,0,12.935,9.8a3.5,3.5,0,0,0-1-3.878Z" transform="translate(13.788 11.748)" fill="#c1dee2"/><path d="M32.446.12C24.525.145,16.6.481,8.683.631,6.253.677.01-.41,0,3.42-.011,7.512,6.944,6,9.259,5.945c7.856-.188,15.732-.532,23.556-1.28,1.976-.189,8.818.137,8.812-2.551-.007-2.848-7.584-2-9.18-2" transform="translate(39.505 16.593)" fill="#c1dee2"/><path d="M87.7.019C68.109.545,48.548.728,28.974,1.731c-7.322.375-14.633.654-21.966.654-1.412,0-4.256-.547-5.585.342-3.607,2.412.5,4.483,2.851,4.613,16.081.893,32.394-1.329,48.465-1.83,9.408-.293,18.819-.38,28.222-.859,2.565-.131,5.131-.282,7.692-.481,1.473-.114,5.368.2,6.558-.663,5.2-3.762-5.76-3.535-7.512-3.488" transform="translate(3.17 43.402)" fill="#89c5cc"/><path d="M.111,3.4A89.992,89.992,0,0,0,.572,18.517C.833,20.5.953,22.76,3.283,23.266c2.116.458,3.189-1.142,3.627-2.916,1.07-4.333.128-10.569.116-15.07C7.02,3.054,7.018.563,4.268.06A3.5,3.5,0,0,0,.111,3.4" transform="translate(0.875 49.603)" fill="#89c5cc"/><path d="M111.513.007Q63.946,2.514,16.4,4.479c-2.475.1-21.7-.1-14.98,6.6,2.076,2.071,7.425.668,10.11.537,4.035-.2,8.071-.35,12.106-.555,16-.814,32.035-1.034,48.02-1.948Q84.848,8.358,97.977,6.8c4.162-.487,9.329-.437,13.227-2.068,2.005-.839,4.17-4.928.309-4.723" transform="translate(0.12 65.237)" fill="#89c5cc"/><path d="M1.47,1.355C-.942,3.756.3,8.495.48,11.463c.25,4.085.554,8.173,1.064,12.236.332,2.639.156,6.747,1.564,9.026a3.9,3.9,0,0,0,6.77-.2c1.319-2.281.651-7.081.617-9.608-.047-3.5-.265-7-.472-10.485-.174-2.916.487-7.588-1.117-10.084A4.792,4.792,0,0,0,1.47,1.355" transform="translate(91.93 38.125)" fill="#89c5cc"/><path d="M8.695,14.54h0a10.3,10.3,0,0,1-1.577-.117A8.874,8.874,0,0,1,.742,9.981,6.4,6.4,0,0,1,0,7.182,6.474,6.474,0,0,1,.7,4.125,6.462,6.462,0,0,1,4.923.9a26.293,26.293,0,0,1,5.6-.845L11,.023c.181-.015.366-.022.549-.022A7.607,7.607,0,0,1,17,2.407a6.5,6.5,0,0,1,1.807,4.908,6.969,6.969,0,0,1-3.532,5.379A12.693,12.693,0,0,1,8.695,14.54ZM6.221,5.84A.593.593,0,0,0,5.832,6c-.323.275-.758.9-.035,2.039A3.173,3.173,0,0,0,8.6,9.5a6.094,6.094,0,0,0,3.184-1,3.183,3.183,0,0,0,1.62-2c.049-.495-.2-1.147-1.676-1.443l-.089,0a14.516,14.516,0,0,0-4.222,1.1.515.515,0,0,1-.205.043,1.058,1.058,0,0,1-.5-.179A1.05,1.05,0,0,0,6.221,5.84Z" transform="translate(14.824 52.353)" fill="#89c5cc"/><path d="M16.073.276C12.358.336,5.057-.763,1.821,1.048-1.381,2.839.047,6.03,2.968,6.793c1.931.5,5.087-.31,7.1-.392,2.644-.108,5.291-.131,7.937-.167,4.45-.06,8.9-.009,13.349-.009,4.546,0,9.169.124,13.707-.21C50.8,5.592,50.645,1.293,45.03.755,35.491-.157,25.642.125,16.073.276" transform="translate(39.708 54.654)" fill="#89c5cc"/><path d="M0,.908c0,2.043,1.812,0,1.8,0,.013,0-1.8-2.043-1.8,0" transform="translate(46.293 102.172)" fill="#89c5cc"/><path d="M0,2.855c.117,5.937.194,11.88.447,17.813.08,1.876-.457,5.539,1.817,6.5,2.531,1.064,3.318-1.589,3.609-3.387.923-5.7.018-12.2-.071-17.964-.03-1.935.389-4.63-1.809-5.594A2.931,2.931,0,0,0,0,2.855" transform="translate(5.297 83.782)" fill="#89c5cc"/><path d="M101.953,21.322h0a2.8,2.8,0,0,1-2.285-1.632c-.857-1.435-.487-3.956-.128-6.393a19.033,19.033,0,0,0,.331-3.872c-.021-.246-.037-.489-.054-.724C99.7,6.985,99.6,5.5,98.147,4.869a5.239,5.239,0,0,0-2.06-.32c-.849,0-1.752.091-2.626.18-.724.073-1.408.142-1.953.144-4.548.021-9.173.033-13.645.045h-.009c-13.6.036-27.662.074-41.487.352-8.183.164-14.448.375-20.313.684A55.82,55.82,0,0,0,6.766,7.022a19.678,19.678,0,0,1-3.823.443C1.359,7.465.4,7.148.1,6.524-.176,5.949.117,5.11.973,4.031c1.513-1.905,6.738-2.275,9.86-2.5.575-.041,1.07-.076,1.481-.115,3.369-.319,6.828-.463,10.172-.6H22.5L24.008.753C32.149.4,40.434.279,48.447.157h.091L51.351.112C56.225.037,61.23,0,66.651,0c4.021,0,8.189.02,12.741.062,5.341.05,10.726.3,16.463.763,2.325.188,4.005.324,5.287,1.036s2.143,2.032,2.84,4.394c1,3.383,2.064,7.732,1.4,11.367a5.406,5.406,0,0,1-1.235,2.507A3.047,3.047,0,0,1,101.953,21.322Z" transform="translate(3.832 81.759)" fill="#89c5cc"/><path d="M85.908,1.714c-19.769,2.3-40.1.943-59.977,1.024-4.833.02-9.67.058-14.5.293-2.55.123-8.6-.58-10.343,1.387C-2.593,8.566,4.041,9.169,6.463,9c4.9-.348,9.805-.507,14.715-.545,17.293-.133,34.683.673,51.962-.18A150.811,150.811,0,0,0,94.561,5.293c1.574-.307,12.349-2.355,6.2-4.81-3.631-1.451-11.043.785-14.857,1.231" transform="translate(5.326 104.7)" fill="#89c5cc"/><path d="M8.941,14.8h0a11.164,11.164,0,0,1-4.017-.732,8.238,8.238,0,0,1-3.255-2.22C-1.658,8.056.577,4.2,3.2.932A2.739,2.739,0,0,1,5.489,0a12.391,12.391,0,0,1,2.7.421c.477.111.928.216,1.306.266.277.037.54.069.793.1,2.072.252,3.322.4,4.866,2.23a8.046,8.046,0,0,1,1.961,6.353,5.69,5.69,0,0,1-2.795,4.036A10.583,10.583,0,0,1,8.941,14.8ZM9.6,6a2.944,2.944,0,0,0-2.138.587.6.6,0,0,0-.159.486c.073.521.883,1.075,2.242,1.075a6.172,6.172,0,0,0,1.605-.228,4.57,4.57,0,0,0-.961-1.9C9.989,6.011,9.791,6,9.6,6Z" transform="translate(21.894 91.147)" fill="#89c5cc"/><path d="M0,2.853c0,4.4,18.981,2.5,22.358,2.5,2.829,0,19.932,1.556,18.7-2.968C40.054-1.332,23.207.515,19.619.51,16.517.506,0-1.624,0,2.853" transform="translate(52.5 95.336)" fill="#89c5cc"/></g><g transform="translate(358 501)" opacity="0.5"><path d="M28.008,46.27h0a20.607,20.607,0,0,1-5.823-.857,24.135,24.135,0,0,1-5.727-2.567A28.392,28.392,0,0,1,6.5,32.466,24.148,24.148,0,0,1,3.4,18.5a3.322,3.322,0,0,1-1.705.62,1.406,1.406,0,0,1-1.265-.755,5.5,5.5,0,0,1,.142-4.548A34.525,34.525,0,0,1,4.31,8.667c.242-.294.491-.6.73-.891a20.79,20.79,0,0,1,7.1-5.842A20.633,20.633,0,0,1,21.2,0l.366,0A38.159,38.159,0,0,1,36.072,2.831a26.646,26.646,0,0,1,6.384,3.75,19.278,19.278,0,0,1,7.168,12.464,23.392,23.392,0,0,1-.09,7.408,24.874,24.874,0,0,1-6.546,13.134A22.687,22.687,0,0,1,35.893,44.6,19.454,19.454,0,0,1,28.008,46.27ZM21.34,5.711a14.454,14.454,0,0,0-5.4.894,9.651,9.651,0,0,0-4.383,3.472,17.526,17.526,0,0,0-2.727,6.056,18.333,18.333,0,0,0-.357,6.638,20.1,20.1,0,0,0,2.12,6.433,26.475,26.475,0,0,0,4.24,5.953,22.988,22.988,0,0,0,5.719,4.462A15.591,15.591,0,0,0,27.11,41.58c.268.015.539.022.806.022a16.061,16.061,0,0,0,12.128-5.941,20.948,20.948,0,0,0,3.613-5.994A19.073,19.073,0,0,0,45,22.932a14.133,14.133,0,0,0-6.059-12.09C35.709,8.474,31.126,6.805,25.69,6.016A36.427,36.427,0,0,0,21.34,5.711Z" transform="translate(0.01 3.36)" fill="#89c5cc"/><path d="M31.072.669A61.153,61.153,0,0,0,19.313,12.452c-3.263,4.212-5.42,9.471-9.34,13.143-1.979-2.156-4.3-7.979-8.247-5.669C-1.551,21.843.559,25.14,2.155,27.3c4.121,5.589,8.7,7.839,13.982,2.316,4.8-5.015,7.526-11.705,12.014-17.009,1.969-2.327,5.01-4.637,6.578-7.206,1.421-2.329-.336-7.177-3.656-4.737" transform="translate(10.754 0.065)" fill="#89c5cc"/></g><g transform="translate(477 137)" opacity="0.5"><path d="M2.614,48.086c-2.2-1-2.149-2.1-1.25-2.958-.545-1.2-.455-3.156-.572-4.1A97,97,0,0,1,0,29.224c-.014-7.786,0-15.873,2.155-23.41A1.913,1.913,0,0,1,.777,4.077C.786.133,12.755.23,18.9.329c1.282.021,2.31.041,2.923.025C26.178.24,30.538.225,34.9.248c.952,0,2.017-.06,3.118-.124a24.36,24.36,0,0,1,6.527.184c5.585,1.3,5.232,10.871,5.346,15.5a243.016,243.016,0,0,1-.589,25.32c-.233,2.86-2.314,6.486-4.687,2.543-1.324-2.2-.734-7.335-.736-9.764-.006-8.635,1.347-17.533.052-26.124-.424-2.816-.33-3.007-3.2-2.947-2.272.048-4.546.123-6.818.17-4.629.1-9.259.161-13.886.33-1.757.065-8.071,1.168-13,1.164,0,.04.007.079.008.119.067,3.33-1.565,7.371-1.787,10.874-.535,8.425.1,17.047-.686,25.43-.024.254-.037.525-.052.8.148-.023.293-.039.432-.047,3.67-.233,7.389-.137,11.066-.222,2.344-.054,4.719-.052,7.1-.049a134.215,134.215,0,0,0,15.741-.595c1.521-.2,2.054,1.755,1.371,2.767-.766,1.136-3.218,1.078-4.352,1.246a98.154,98.154,0,0,1-10.043.813c-3.522.156-7.046.273-10.57.371-2.045.057-5.761.648-8.84.648A9.834,9.834,0,0,1,2.614,48.086Z" transform="translate(39.311 0.302)" fill="#89c5cc"/><path d="M3.025,46.218a1.475,1.475,0,0,1,.318-.925A6.224,6.224,0,0,1,1.924,42.78C.736,38.936.624,34.788.535,30.8.348,22.283.441,13.75.389,5.228-.383,4.19.076,3,1.04,2.175,3.645-.061,11.151.507,14.458.331,19.217.08,23.979.022,28.743,0c5.045-.026,10.1.065,15.141.221,1.871.057,14.88.384,9.066,3.538a6.073,6.073,0,0,1-1.117.457,18.419,18.419,0,0,1,.232,3.625c-.247,4.535-.353,9.079-.554,13.616-.225,5.065-.438,10.129-.613,15.2-.093,2.678.824,8.907-1.3,10.84-1.429,1.3-2.4,1.042-3.062.157-3.643,1.058-10.708.866-15.191.674-1.76-.075-3.121-.15-3.722-.149-2.011,0-8.711.682-14.613.682C7.7,48.862,3.041,48.311,3.025,46.218ZM6.232,17.17c-.01,8.623.308,17.2.5,25.775q.01.422-.018.784c4.121-.88,10.777-.715,15.09-.55,1.745.067,3.107.133,3.761.131,4.229-.016,8.46.042,12.685.212.479.019,1.211,0,2.069-.024a39.082,39.082,0,0,1,5.014.1c-.023-.23-.038-.441-.047-.622-.23-4.561.021-9.17.168-13.731.148-4.6.374-9.191.551-13.787.091-2.364-.506-7.3.142-10.7-3.072-.058-6.294-.43-8.366-.43-4.865,0-9.725-.056-14.589.041A141.235,141.235,0,0,0,7.414,5.23c-.286.038-.63.112-1.01.2C7.2,8.752,6.235,14.094,6.232,17.17Z" transform="translate(106.777 1.166)" fill="#89c5cc"/><path d="M1.795.484C-1.333,2.311.354,9.619,1.438,12.147c1.781,4.156,5.4,7.408,9.295,9.566,7.882,4.36,19.244,3.2,25.205,10.762.062.078,2.122,2.118,2.591-.524.385-2.168-3.462-5.479-4.952-6.566C29.338,22.295,23.9,21.3,19,19.755,13.77,18.108,8.031,15.073,5.839,9.683c-.776-1.909.7-11.986-4.044-9.2" transform="translate(59.489 47.639)" fill="#c1dee2"/><path d="M34.65.1c-2.866.79-.971,4.734-.975,6.708a11.7,11.7,0,0,1-2.311,7.007c-3.85,4.986-11.389,5.733-17.041,7.162C10.219,22.017.4,24.244.015,29.794c-.429,6.2,8.24-1.345,8.972-1.654,8.1-2.972,18.585-3.546,24.838-10.088a16.078,16.078,0,0,0,4.35-10.025c.137-2.094.16-8.933-3.525-7.927" transform="translate(98.129 51.536)" fill="#c1dee2"/><path d="M23.6,41.39h0a26.164,26.164,0,0,1-8.272-1.41,26.966,26.966,0,0,1-7.587-3.992A20.684,20.684,0,0,1,2.186,29.77,16.4,16.4,0,0,1,0,21.68a16.693,16.693,0,0,1,1.831-7.755A20.623,20.623,0,0,1,6.67,7.851,35.407,35.407,0,0,1,20.833.665,19.9,19.9,0,0,1,25.9,0,19.068,19.068,0,0,1,38.833,5.091,20.643,20.643,0,0,1,45.279,17.9a20.511,20.511,0,0,1-4.695,15.863,21.153,21.153,0,0,1-6.976,5.36,22.981,22.981,0,0,1-9.021,2.241C24.264,41.383,23.934,41.39,23.6,41.39ZM7.241,14.449c-2.43,4.2-2.564,8.409-.387,12.185A17.237,17.237,0,0,0,14.241,33.2,23.383,23.383,0,0,0,24.49,35.658a16.79,16.79,0,0,0,7.074-1.442,13.988,13.988,0,0,0,7.1-7.383,16.572,16.572,0,0,0,.9-9.877,14.049,14.049,0,0,0-4.2-7.546,12.876,12.876,0,0,0-8.718-3.232,2.97,2.97,0,0,1,.675,2.072,1.456,1.456,0,0,1-.748.967,1.717,1.717,0,0,1-.862.271c-.714,0-1.185-.661-1.641-1.3a2.951,2.951,0,0,0-1.356-1.275,1.954,1.954,0,0,0-.529-.068c-1.357,0-3.174,1.128-4.459,2.074a17.763,17.763,0,0,0-2,2.047c-1.851,2.062-4.387,4.886-6.423,4.886A2.38,2.38,0,0,1,7.241,14.449Z" transform="translate(73.561 84.935)" fill="#89c5cc"/><path d="M0,1.994c0,2.632,4.157,2.632,4.157,0C4.157-.609,0-.72,0,1.994" transform="translate(89.289 100.783)" fill="#89c5cc"/><path d="M0,2.442c0,3.224,5.094,3.224,5.094,0C5.094-.746,0-.882,0,2.442" transform="translate(96.603 99.84)" fill="#89c5cc"/><path d="M.882.235C-3.284,2.685,8.63,7.554,9.1,2.579,9.3.432,7.224,1.011,5.839.853,4.513.7,2.14-.5.882.235" transform="translate(90.487 109.561)" fill="#89c5cc"/><path d="M0,2.1C.183,8.357.1,14.612,1.283,20.784c.226,1.172.382,5.424,1.309,6.295C4.87,29.221,4.908,25.115,5,23.542,5.313,17.906,4.721,12.1,4.59,6.448c-.028-1.215.294-3.733-.28-4.91C3.4-.329-.087-.883,0,2.1" transform="translate(89.56 125.083)" fill="#c1dee2"/><path d="M60.917.694c-9.133,10.251-21.71,9.5-34.38,10.393-6.694.474-13.463,1.448-18.85,5.778a22.881,22.881,0,0,0-6.117,7.413c-.634,1.257-3.644,8.51.876,6.789,1.6-.61,3.181-5.407,4.218-6.826A20.144,20.144,0,0,1,14.2,17.86c5.847-2.8,12.829-2.749,19.169-3.1,6.627-.371,13.741-.717,19.832-3.6a30.031,30.031,0,0,0,7.86-5.225c.824-.779,2.591-2.1,2.723-3.293.151-1.361-1.158-3.853-2.863-1.944" transform="translate(24.189 121.412)" fill="#c1dee2"/><path d="M32.074.631c-8.579.287-17.147.634-25.715,1.176C4.6,1.918-1.25,1.564.241,5.161c1.195,2.884,8.334.976,10.7.836,8.927-.53,17.891-.714,26.8-1.517,2-.18,11.047-.108,7.312-3.655C43.27-.863,34.529.547,32.074.631" transform="translate(6.926 152.938)" fill="#89c5cc"/><path d="M1.719.818C-.985,4.37.258,13,.462,17.271c.2,4.138-.606,11.7,4.8,12.344-1.715-.225,1.3.1,1.793.131,1.1.059,2.2.078,3.3.09,2.537.028,5.075-.006,7.611-.057,5.745-.115,11.505-.282,17.243-.6,2.412-.134,15.5-.022,16.014-2.528.662-3.2-11.883-1.39-14.129-1.288-5.469.251-10.947.3-16.421.375-2.713.036-5.429.062-8.142.009-1.12-.022-5.557.438-6.238-.309-.581-.636-.127-6.486-.14-7.381-.04-2.917-.037-5.841.067-8.757.07-1.963,1.131-5.7.266-7.542A2.987,2.987,0,0,0,1.719.818" transform="translate(0 156.889)" fill="#89c5cc"/><path d="M0,3.392c.157,6.5.205,13.126,1.74,19.48.511,2.115,1.226,6.476,3.351,7.57,2.23,1.149,4.155-.491,4.3-2.7.184-2.778-1.3-6.424-1.609-9.274-.356-3.325-.564-6.654-.685-10C7.006,5.96,7.77,2.192,5.374.571A3.454,3.454,0,0,0,0,3.392" transform="translate(45.894 154.482)" fill="#89c5cc"/><path d="M1.7,1.048C-.971,3.706.221,12.121.555,15.536c.244,2.5,2.982,14.806,7.084,8.39,1.814-2.838-.491-10.343-.475-13.653.011-2.108.757-4.773.4-6.8C7.085.8,4.117-1.369,1.7,1.048" transform="translate(61.271 155.239)" fill="#89c5cc"/><path d="M3.786,31.676c-2.044-.085-4.227-.753-3.709-3.4.459-2.344,2.818-2.362,4.74-2.558a165.362,165.362,0,0,1,17.411-.778c12.231.042,24.452-.022,36.683-.086a2.649,2.649,0,0,1,1.365.525c-.638-.776-.331-1.925-.45-3.047-.321-3.026-.529-6-1.1-9.025-.459-2.42-.8-6.53-3.047-8.053-1.909-1.3-5.632-1.247-8.564-1.2-.83.014-1.6.027-2.24.011A203.553,203.553,0,0,0,21.279,5.139c-3.568.325-7.181.572-10.71,1.212-1.965.357-7.729,3.242-9.3,1.467C-2.508,3.544,14.1,1.79,16.351,1.557,24.365.731,32.389.11,40.448.033,45.889-.009,55.2-.473,59.2,3.992c2.4,2.681,3.246,7.1,4.184,10.443.72,2.569,2.673,7.2,1.285,9.856-.628,1.2-1.639,2.225-3.173,1.8a2.885,2.885,0,0,1-.859-.376,2.227,2.227,0,0,1,.466,2.428c-.917,2.129-4.293,1.67-6.126,1.823-6.119.51-12.266.851-18.407.9-2.922.025-5.844,0-8.766-.022-3.011-.025-6.023-.05-9.033-.02-4.494.044-9.157.876-13.647.876Q4.454,31.7,3.786,31.676Z" transform="translate(65.092 152.536)" fill="#89c5cc"/><path d="M59.849,31.578h0c-1.48,0-3-2.517-4.011-4.182a14.644,14.644,0,0,0-.855-1.322,13.921,13.921,0,0,0-6.845-5.053c-5.21-1.777-10.962-2.448-16.524-3.1-1.894-.221-3.853-.45-5.729-.717-.968-.138-1.955-.263-3-.4-5.029-.636-10.729-1.357-15.027-3.789C5.975,11.956.03,6.509,0,2.875A2.634,2.634,0,0,1,1.421.467,2.976,2.976,0,0,1,2.9,0C4.335,0,5.135,1.565,5.84,2.945c.225.441.438.857.66,1.2a11.742,11.742,0,0,0,7.205,5.208A108.417,108.417,0,0,0,27.651,12.1c1.2.182,2.443.37,3.658.565.995.159,2.028.315,3.027.466,5.509.831,11.2,1.689,16.183,3.888a29.442,29.442,0,0,1,6.22,5.138c1.722,1.772,4.629,5.089,4.757,7.391a1.861,1.861,0,0,1-.96,1.841A1.355,1.355,0,0,1,59.849,31.578Z" transform="translate(111.051 117.42)" fill="#c1dee2"/><path d="M6.629,32.63c-2.092-.2-4.339-.941-3.82-3.578C1.354,26.261.684,20.9.554,19.841A97.787,97.787,0,0,1,.03,6.181a2.992,2.992,0,0,1,4.8-2.308c2.5-1.047,6.729-1.2,9-1.433,3.734-.377,7.5-.518,11.246-.742C33.819,1.175,42.554.233,51.314.039c2.621-.055,6.132-.292,8.229,1.643,2.387,2.2,2.862,7.669,3.577,10.614a71.837,71.837,0,0,1,2.029,9.733,18.527,18.527,0,0,1,.189,3.276,2.051,2.051,0,0,1,1.633,2.362c-.2,2.146-3.176,2.438-4.916,2.777-5.782,1.129-11.964.872-17.826,1.038C34.723,31.75,24.707,33,14.992,33,12.173,33,9.378,32.895,6.629,32.63Zm1.22-6.1c.269,0,.534,0,.788,0q9.254-.162,18.5-.532c6.287-.241,12.574-.51,18.866-.582,2.192-.025,4.412.043,6.639.112,2.854.088,5.719.176,8.549.067-1.083-2.835-.919-7.3-1.5-10.233-.573-2.915-.791-6.371-1.963-9.109-1.319-3.08-2.466-2.367-5.9-2.134-3.532.239-7.06.577-10.588.867-7.756.638-15.519,1.042-23.28,1.582-4.026.281-7.878,1.429-11.816,1.88-.059,1.405-.258,2.823-.235,3.849.067,3.025.365,6.028.627,9.041.106,1.225.612,3.339.688,5.193H7.85Z" transform="translate(135.777 150.643)" fill="#89c5cc"/></g></g><g transform="translate(-6899 4853.411)"><g transform="matrix(0.966, 0.259, -0.259, 0.966, 154.867, 39.003)"><g transform="translate(18.198 2.357)"><path d="M0,76.135,8.609,35.971C3.808,30.33.558,23.416,1.1,15.67,2.666-6.649,33.706-1.739,39.743,9.526s5.321,39.839-2.482,41.853c-3.112.8-9.742-1.164-16.489-5.235l4.235,29.991Z" transform="translate(0 0)" fill="#886a57"/></g><path d="M18.479,2.1C17.906,1.756,16.708,1.034,16.1.772,15.957.709,14.951-.009,14.924,0c-.762.257-2.967,1.207-3.156,2.027-.029.062-.058.121-.086.171-.313.569-.6,1.151-.873,1.741C10.208,5.235,9.69,6.588,9.2,7.931c-.964,2.615-1.8,5.291-2.571,7.973-.784,2.73-1.449,5.492-2.194,8.234C3.359,28.082,1.987,31.93.923,35.873a23.16,23.16,0,0,0-.879,7.656c0,.031,0,.062.006.094,0,.013,0,.026,0,.039q.046.6.131,1.2c.05.342.1.686.155,1.03.972-1.94,1.714-4.078,2.5-6.107.077-.2.151-.4.222-.6q.381-.617.775-1.227c1.651-2.567,3.309-5.124,4.892-7.737A139.412,139.412,0,0,1,17.777,16.4c1-1.274,2.017-2.529,3-3.814q.84-1.1,1.634-2.231c.377-.541,2.018-2.427,1.424-3.56A30.6,30.6,0,0,0,18.479,2.1Z" transform="translate(33.827 2.356)" fill="#2c2c2c"/><path d="M50.108,3.223c.557.187.286-.973-.254-1.381C47.355-.049,37.8-.736,29.484.992a40.33,40.33,0,0,0-16.5,7.742c-4.011,3.339-6.77,8.692-8.19,13.863a40.322,40.322,0,0,0-.886,16.66c.183,1.223.575,2.389.793,3.586A27.8,27.8,0,0,0,5.512,46.8c.269.8.725,1.59.954,2.4a5.515,5.515,0,0,1-.089,2.711,29.64,29.64,0,0,1-1.244,4.511c-.823,2.191-1.821,4.243-2.447,6.517C1.854,65.963-1.631,75.808.916,78.491h48.47C48.165,75.159,44.5,71.237,43.76,67.67c-.437-2.1-.645-6.691-.69-6.858-1.092-7.537-3.225-11.136-4.561-12.442s-3.115-1.708-3.207-2.841c-.379-4.686,1.483-9.176,2.848-13.549,1.627-5.212,2.819-10.554,4.5-15.748C43.389,13.932,47.216,2.25,50.108,3.223Z" transform="translate(0 0)" fill="#ffd200"/><path d="M5.808,41.442l.734-.893c10.01,3.139,8.895,9.618,21.5,16.18l-1.053.639C15.952,52.808,13.371,43.027,5.808,41.442Zm8.1-34.815.8-.065c1.546,11.743,2,18.45,10.057,31.295l-.857.262C15.617,26.936,14.3,17.807,13.911,6.627ZM0,15.326l.716-.345c3.406,8.273,4.959,13.158,14.47,19.852l-.734.515C5.01,29.992,2.261,23.6,0,15.326Zm22.514,1.509C20.838,9.35,22.329,2.3,24.111,0h1.127C23.41,5.8,23.017,8.9,23.41,16.836Z" transform="translate(7.877 8.614)" fill="rgba(0,0,0,0.2)"/></g><g transform="translate(25.007 182.765)"><path d="M108.485-.049C88.537,16.212,96.059,158.7,94.727,160.492c-.888,1.2-94.809,20.4-94.809,20.4l2.7,11.027s109.856-5.5,116.262-13.654C128.05,166.587,141.6,47.715,141.6,47.715Z" transform="matrix(0.574, -0.819, 0.819, 0.574, 34.346, 117.846)" fill="#886a57"/><path d="M-.08,176.559l4.752,17.76c54.589,6.242,90.581-1.531,103.254-13.583S130.7,50.544,130.7,50.544L95.281-.043C47.8,35.776,76.039,152.951,74.825,155.633S44.82,160.448-.08,176.559Z" transform="matrix(0.574, -0.819, 0.819, 0.574, 40.676, 107.09)" fill="#242424"/><g transform="translate(185.012 193.794) rotate(20)"><path d="M4.474,5.033A2,2,0,0,0,1.908,6.381L0,13.106A64.242,64.242,0,0,0,.9,21H57.3s2.2-7.268-2.538-7.848-7.87-1.047-7.87-1.047L20.68.419a1,1,0,0,0-1.332.532L17.663,5.039s-4.385,2.046-7.127,2.046Z" transform="translate(1 19)" fill="#e4e4e4"/></g><path d="M106.908,0,52.991,129.562,0,239.1H12.5L149.288,0Z" transform="translate(3.538 28.953)" fill="#886a57"/><g transform="translate(0 236.499)"><path d="M4.661,5.235A2.084,2.084,0,0,0,1.988,6.641L0,13.654a67.062,67.062,0,0,0,.939,8.233H59.707S62,14.307,57.062,13.7s-8.2-1.091-8.2-1.091L21.547.423A1.042,1.042,0,0,0,20.16.978L18.4,5.241s-4.569,2.134-7.425,2.134Z" transform="translate(1.042 19.83)" fill="#e4e4e4"/></g><path d="M0,216.341l27.78,5.215C49.26,189.946,139.154,60.336,149.01,0H87.164C54.25,43.617,20.475,184.209,0,216.341Z" transform="translate(8.324 28.953)" fill="#333"/></g><g transform="matrix(0.985, 0.174, -0.174, 0.985, 76.937, 86.712)"><path d="M1.278,93.732c-1.163-.718-2.436-3.42.64-5.532,7.667-5.262,18.715-14.471,20.208-17.5C25.18,64.5,35.577,4.064,35.577,4.064l21.774.086S37.185,69.315,35.577,73.3c-2.411,5.981,2.691,15.09,4.873,19.985-3.439,1.54-5.037-.426-6.786-2.393-1.864-2.1-3.9-4.192-8.527-2.038-5.919,2.757-10.812,7.132-16.645,7.131A13.525,13.525,0,0,1,1.278,93.732Zm186.2-58.639L156.784,16.979,166.588,0,196.1,28.822a89.439,89.439,0,0,1,21.11,12.146c1.234,1.49,2.577,4.343-3.227,3.067s-11.967-2.359-13.057-.47,2.123,4.784.107,7.258a.762.762,0,0,1-.618.3Q197.641,51.118,187.477,35.092Z" transform="translate(0 92.95)" fill="#886a57"/><path d="M0,2.327,8.841,0q28.25,55.932,90.153,98.246l-26,37.929C30.558,94.581,2.767,50.267,0,2.327Z" transform="matrix(0.996, 0.087, -0.087, 0.996, 97.658, 3.243)" fill="#a1860d"/><path d="M0,118.9H80.23S52.349,51.039,52.349,3.609L28.147,0C9.127,30.619,3.756,68.318,0,118.9Z" transform="translate(58.179 0)" fill="#dde3e9"/><path d="M0,153.313C8.775,54.229,64.084,0,64.084,0L64.1.017,64.112,0h1.58c2.836.1,8.638.352,8.638.352l5.848,16.729c.928,30.592,10.838,123.306,10.838,123.306H38.5q.134,6.376.605,12.926Z" transform="translate(21.711)" fill="#c7a715"/><path d="M14.7,51.624H.065A266.71,266.71,0,0,1,4.023,0a280.716,280.716,0,0,0,3.53,28.874c1.906,10.334,4.309,17.988,7.141,22.748Z" transform="translate(60.155 89.174)" fill="rgba(0,0,0,0.1)"/><path d="M0,12.068,25.933,0V12.068Z" transform="translate(71.84 96.399)" fill="rgba(255,255,255,0.2)"/></g></g></g></svg>