<svg xmlns="http://www.w3.org/2000/svg" width="740" height="680" viewBox="0 0 740 680"><g transform="translate(5934 -3886)"><g transform="translate(-5934 3886)"><g transform="translate(505 85)"><circle cx="53" cy="53" r="53" fill="#f2f2f2"/><circle cx="3" cy="3" r="3" transform="translate(50 8)" fill="rgba(0,0,0,0.1)"/><circle cx="3" cy="3" r="3" transform="translate(8 50)" fill="rgba(0,0,0,0.1)"/><circle cx="3" cy="3" r="3" transform="translate(92 50)" fill="rgba(0,0,0,0.1)"/><circle cx="3" cy="3" r="3" transform="translate(50 92)" fill="rgba(0,0,0,0.1)"/><path d="M2,0,4,35H0Z" transform="translate(51 17)" fill="#afb9c5"/><path d="M2,0,4,24H0Z" transform="translate(72.113 69.284) rotate(135)" fill="#afb9c5"/><circle cx="4" cy="4" r="4" transform="translate(49 49)" fill="#c5cfd6"/></g><g transform="translate(29 244)" opacity="0.346"><path d="M-.206,172.385C-7.1,95.336-377.036-53.376-445.713,19.6s-2.653,209.942,141.269,245.014S6.688,249.434-.206,172.385Z" transform="translate(473)" fill="#f2f2f2"/><path d="M.144,146.448C6.32,80.992,337.692-45.345,399.21,16.654s45.947,192.405-82.972,222.2S-6.032,211.9.144,146.448Z" transform="translate(244 76)" fill="#dde3e9"/></g><g transform="translate(25)"><g transform="translate(0 152.673)"><ellipse cx="42.5" cy="22.5" rx="42.5" ry="22.5" transform="translate(7 12)" fill="#f2f2f2"/><path d="M99,50C99,22.386,76.838,0,49.5,0S0,22.386,0,50" transform="translate(0)" fill="#dde3e9"/></g><rect width="5" height="160" transform="translate(47)" fill="#dde3e9"/></g><g transform="translate(115)" opacity="0.7"><g transform="translate(0 113)"><ellipse cx="31.768" cy="18.158" rx="31.768" ry="18.158" transform="translate(5.232 9.684)" fill="#f2f2f2"/><path d="M74,40.351C74,18.066,57.435,0,37,0S0,18.066,0,40.351" transform="translate(0)" fill="#dde3e9"/></g><rect width="5" height="136" transform="translate(35)" fill="#dde3e9"/></g><g transform="translate(524 198)"><path d="M0,24.236,18.568,5.66a8,8,0,0,1,11.316,0L79.316,55.113A16,16,0,0,1,84,66.424V394" transform="translate(60 12)" fill="none" stroke="#cbcbcb" stroke-miterlimit="10" stroke-width="8"/><rect width="59" height="7" rx="3" transform="translate(114 405)" fill="#afb9c5"/><g transform="translate(48.79 1) rotate(45)"><path d="M33,0h0A33,33,0,0,1,66,33V61a0,0,0,0,1,0,0H0a0,0,0,0,1,0,0V33A33,33,0,0,1,33,0Z" transform="translate(0.03 1.384)" fill="#c5cfd6"/><ellipse cx="33" cy="6.5" rx="33" ry="6.5" transform="translate(0.209 54.945)" fill="#f2f2f2"/></g></g><g transform="translate(16 371)"><g transform="translate(22)"><path d="M24.258.173a16.915,16.915,0,0,1,8.586.9c5.665,2.4,7.275,9.1,7.2,14.536-.084,5.855-1.327,12.249,3.124,16.966,2.046,2.169,4.591,3.828,6.6,6.037a28.536,28.536,0,0,1,5.078,7.96c2.29,5.326,3.414,11.59,1.32,17.177-1.844,4.919-6.483,9.359-5.48,14.953C51.729,84.543,57.612,89,61.29,93.351c4.163,4.919,8,11.205,8.625,17.656.6,6.182-2.087,12.434-6.217,17.107C55.448,137.451,43.045,142.028,30.54,142c-5.31-.012-11.321-.252-15.9-3.105a8.763,8.763,0,0,1-3.005-3.247,10.586,10.586,0,0,0-2.906-2.908,17.25,17.25,0,0,1-5.535-7.392c-4.538-11.233-.911-25.129,5.441-35.1,1.505-2.363,2.737-4.637,2.006-7.454C9.874,79.848,8,77.2,6.34,74.669a65.318,65.318,0,0,1-4.792-7.582A17.2,17.2,0,0,1,.066,58.2,30.237,30.237,0,0,1,6.578,42.336C10,37.83,14.022,33.518,14.031,27.615c.01-6.257-4.173-11.824-2.391-18.186a12.123,12.123,0,0,1,4.609-6.916C18.539,1,21.564.5,24.258.173Z" transform="translate(1 1)" fill="#dde3e9"/><path d="M1.386,1.176A1.442,1.442,0,0,1,3.222.051c1.033.289,1.013,1.254.986,2.114a28.41,28.41,0,0,0,.934,7.776C6.462,15.274,8.9,20.186,10.836,25.308s2.839,10.4,1.705,15.816C11.473,46.23,9.795,51.2,8.7,56.315c-.964,4.506-1.989,9.257-.522,13.751,1.412,4.326,4.534,7.849,6.783,11.758a55.439,55.439,0,0,1,6.995,26.31,49.2,49.2,0,0,1-.983,12.828c-.573,2.423-1.343,5.7-3.419,7.37-.957.771-2.595,1.038-3.4-.1-.757-1.071-.093-2.73.147-3.872a58.7,58.7,0,0,0,1-15.015,54.212,54.212,0,0,0-2.346-14.36A48.6,48.6,0,0,0,6.84,83.032C4.252,79.191,1.562,75.341.493,70.789c-1.086-4.623-.2-9.327.976-13.862,1.248-4.8,2.883-9.455,4.573-14.122A24.78,24.78,0,0,0,7.363,29.2C5.567,19.794.76,10.968,1.386,1.176Z" transform="translate(22 10)" fill="#c5cfd6"/></g><g transform="translate(32 11)"><path d="M90.892,1.582a21.492,21.492,0,0,1,9.592,5.536c5.373,5.791,3.724,14.543.758,20.935-3.193,6.88-8.031,13.8-5.3,21.69,1.254,3.629,3.362,6.916,4.551,10.573a36.871,36.871,0,0,1,1.749,12.056c-.129,7.49-2.122,15.483-7.531,21-4.763,4.859-12.551,7.7-14.332,14.833-1.858,7.445,2.684,15.781,4.7,22.835,2.283,7.983,3.455,17.411.784,25.367-2.559,7.625-9.02,13.619-16.334,17-14.613,6.75-31.58,5.712-46.232-.828-6.221-2.777-13.145-6.188-17.011-11.946a11.264,11.264,0,0,1-1.809-5.4A13.591,13.591,0,0,0,2.6,150.278,22.24,22.24,0,0,1,.02,138.656c.615-15.645,12.214-30.192,24.936-38.684,3.015-2.012,5.662-4.06,6.293-7.772.659-3.874-.139-7.986-.748-11.839-.6-3.807-1.537-7.6-1.612-11.459a22.446,22.446,0,0,1,2.959-11.283c3.6-6.647,9.379-11.689,16.021-15.372,6.4-3.547,13.392-6.555,16.523-13.532,3.319-7.4,1.355-16.154,6.807-22.751C73.458,3.233,76.625.807,80.262.182,83.749-.417,87.558.57,90.892,1.582Z" transform="translate(0 0)" fill="#dde3e9"/><path d="M51.651.811A1.838,1.838,0,0,1,54.387.44c1.057.883.528,2.016.046,3.02a37.22,37.22,0,0,0-2.98,9.7c-1.248,7.006-.968,14.1-1.389,21.182s-2.128,13.805-6.289,19.624c-3.923,5.486-8.49,10.5-12.446,15.977-3.487,4.831-7.174,9.92-7.812,16.012-.614,5.863,1.191,11.672,1.773,17.48,1.2,12.023-1.084,23.737-5.6,34.823a64.286,64.286,0,0,1-7.867,14.676c-1.939,2.569-4.554,6.043-7.858,6.936-1.524.412-3.578-.131-3.922-1.906-.323-1.665,1.321-3.282,2.2-4.508A76.711,76.711,0,0,0,11.275,136.2a71.04,71.04,0,0,0,4.778-18.235,63.555,63.555,0,0,0-.895-17.357c-1.014-5.906-2.143-11.875-1.009-17.826,1.151-6.044,4.647-11.152,8.4-15.9,3.971-5.026,8.323-9.687,12.743-14.327a32.357,32.357,0,0,0,8.673-15.424C46.79,25.049,45.791,12.078,51.651.811Z" transform="translate(32 13)" fill="#c5cfd6"/></g><g transform="translate(0 57)"><path d="M13.306,0C19.2,0,24.382,3.124,27.953,7.558c4.18,5.19,5.024,11.528,6.721,17.714A15.813,15.813,0,0,0,39.517,33.5c2.315,1.9,5.255,2.283,8.026,3.212A18.73,18.73,0,0,1,59.321,48.5c2.155,6.659-.128,13.374.265,20.122.361,6.2,6.471,10.064,11.387,13.035,4.848,2.93,9.215,5.672,10.675,11.379,1.548,6.053,2.068,12.809-.077,18.788-3.57,9.956-14.019,14.34-24.116,15.02-9.163.617-20.684-.352-27.565-7-4.118-3.98-5.609-9.547-5.424-15.085a45.92,45.92,0,0,1,1.679-10.184,45.944,45.944,0,0,0,1.71-7.145c.64-6.484-5.354-7.73-10.455-9.51A24.88,24.88,0,0,1,3.224,65.425C.285,59.881-.948,53.658.814,47.554A20.863,20.863,0,0,1,5.559,39.2c.974-1.059,2.348-1.942,3.227-3.054a4.12,4.12,0,0,0,.359-3.6C7.837,26.931,3.762,22.278,2.3,16.668.989,11.605,1.767,5.3,6.4,2.038A12.089,12.089,0,0,1,13.306,0Z" transform="translate(0 0)" fill="#c5cfd6"/><path d="M3.338.641C9.585,7.3,11.283,16.325,11.781,25.076c.279,4.907-.011,10.083,1.43,14.843,1.234,4.074,4.126,7.188,7.106,10.131,6,5.925,12.693,11.948,14.448,20.523,1.03,5.032.335,10.23,1.758,15.207a41.827,41.827,0,0,0,6.343,12.788c2.231,3.076,5.138,5.431,7.577,8.3.744.875,1.81,2.164,1.5,3.4-.359,1.447-2.2,1.905-3.511,1.678-3.049-.53-5.616-3.442-7.61-5.558a47.877,47.877,0,0,1-7.407-10.159,42.71,42.71,0,0,1-4.8-13.2c-.8-4.827-.4-9.858-2.223-14.491-3.067-7.8-10.5-12.4-15.883-18.471-6.7-7.571-5.7-16.993-5.015-26.305.377-5.118.752-10.9-1.834-15.57C2.672,6.406.471,4.743.047,2.715-.342.858,1.78-1.019,3.338.641Z" transform="translate(18 14)" fill="#afb9c5"/></g><path d="M0,0C0,38.058,6.211,58,39,58S78,38.058,78,0Z" transform="translate(28 181)" fill="#89c5cc"/></g><g transform="translate(135 353)"><g transform="translate(23)"><rect width="38" height="9" rx="2" transform="translate(21 144)" fill="#afb9c5"/><path d="M15.5,75a15.5,15.5,0,0,1,0-31H23c6.44-20.872,7.217-44,7.217-44h4.566A167.709,167.709,0,0,0,42,44h6.5a15.5,15.5,0,0,1,0,31Z" transform="translate(8 71)" fill="#dde3e9"/><path d="M4.622,1.679S21.811,0,39,0,73.378,1.679,73.378,1.679L78,81.133S58.5,83,39,83,0,81.133,0,81.133Z" fill="#c5cfd6"/></g><path d="M104,104V22H21v82H0V0H125V104Z" transform="translate(0 153)" fill="#f2f2f2"/></g><g transform="translate(537 328)"><g transform="translate(13)"><path d="M.381.208C9.214,21.2,24.229,35.781,32.182,57.6c4.716,12.942,6.682,27.015,6.8,41.427.065,7.828-.071,15.662-.108,23.49-.036,7.634-.243,15.219-.891,22.8-.651,7.625-1.38,15.16-1.7,22.833-.25,5.978-.365,12.932-2.391,18.385-1.611,4.337-5.707,4.972-6.794-.288a42.045,42.045,0,0,1-.461-9.193c.085-3.855.31-7.7.424-11.559.46-15.468-.136-30.938.175-46.412.3-15.119,2.248-30.221.1-45.238-1.776-12.4-6.287-23.051-11.471-33.26C10.874,30.771,5.445,21.187,2.075,10.014A53.84,53.84,0,0,1,0,.03Q.235-.079.381.208Z" transform="translate(3 0)" fill="#c1dee2"/><path d="M.974.617C2.723,1.88,3.7,3.728,4.882,5.551c1.47,2.266,3.2,4.313,4.668,6.581C12.615,16.86,15.308,21.879,18.1,26.8a96.064,96.064,0,0,1,11.326,30.1c2.067,11.2,2.625,22.754,3.492,34.117.92,12.044,1.846,24.176,1.968,36.267.055,5.417.347,11.167-.3,16.546-.4,3.349-1.916,6.2-5.323,6.175-7.237-.057-10.634-8.073-12.053-14.646-2.089-9.679-2.506-19.961-2.175-29.86C15.432,93.558,17.5,81.8,18.4,69.912c.95-12.587.413-24.951-3.914-36.8-2.186-5.989-4.724-11.835-7-17.784A57.489,57.489,0,0,0,4.409,7.831C2.951,5.208,1.142,2.826,0,0Z" transform="translate(0 41)" fill="#89c5cc"/><path d="M17.334.518,18,0a66.162,66.162,0,0,1-2.676,7.341,59.91,59.91,0,0,0-1.729,7.136c-1.255,5.681-2.7,11.234-3.889,16.963C7.36,42.777,7.8,54.99,9.342,67.568c1.453,11.881,3.751,23.745,4.845,35.623a163.552,163.552,0,0,1,.432,29.409c-.588,6.383-2.517,14-7.771,13.361-2.474-.3-3.764-3.281-4.284-6.642-.835-5.4-1.01-11.074-1.335-16.443C.5,110.9.358,98.951.214,87.092.078,75.9-.3,64.494.452,53.587a102.687,102.687,0,0,1,6.2-28.758c1.7-4.61,3.317-9.328,5.225-13.721.915-2.107,2.033-3.97,2.949-6.075C15.563,3.339,16.148,1.6,17.334.518Z" transform="translate(67 16)" fill="#c1dee2"/><path d="M.209.3C1.166-1.3,3.272,3.993,3.593,4.66q-.2-.5-.409-.993A44.1,44.1,0,0,1,7.9,13.734c1.069,3.585,1.987,7.242,2.99,10.853,1.882,6.774,4.31,13.356,6.016,20.191a65.7,65.7,0,0,1,1.678,20.1A171.685,171.685,0,0,0,18.4,86.462c.233,3.418,1.344,6.6,2.1,9.892s1.362,6.632,2.263,9.884c.207-.424.233.993.233,1.1a6.829,6.829,0,0,1-.381,2.265,6.1,6.1,0,0,1-3.841,4.212c-3.456.988-6.666-2.157-7.78-5.477A90.858,90.858,0,0,1,7.755,93.3,70.881,70.881,0,0,1,7.1,79.44c.409-9.179,2.07-18.238,2.519-27.414.489-9.99-1.49-19.376-3.147-29.1A84.98,84.98,0,0,0,3.356,9.134,38.761,38.761,0,0,0,1.048,4.061C.558,3.112-.431,1.418.209.3Z" transform="translate(3 76)" fill="#c1dee2"/><path d="M10.252,35.7c-.4,11.445-1.08,22.8-2.606,34.127C6.089,81.38,4.3,92.9,2.8,104.463c-1.459,11.259-2.987,22.7-2.784,34.121.15,8.409-1.244,22.634,8.1,26.784,9.459,4.2,11.488-13.746,12.109-19.67,1.19-11.366.8-22.852.227-34.28-.593-11.729-1.583-23.4-2.81-35.085-1.363-12.981-2.432-26.02-3.29-39.038-.425-6.439-.529-12.867-.412-19.308C14.048,11.911,13.817,5.77,11.656,0l-.339.246" transform="translate(21 25)" fill="#69a1ac"/><path d="M12.083,5.955c-1.7,2.478-3.416,4.932-5.022,7.557C4.186,18.209,1.587,23.432.8,30.147-.831,44.2.481,59.379.8,73.863c.065,2.96-.31,5.83.857,8.647,1.058,2.554,3.035,4.5,4.92,4.49C10.611,86.977,10,77.1,10,72.746c.012-7.623-.843-15.324-.769-22.94a159.271,159.271,0,0,1,1.626-22.278A128.354,128.354,0,0,1,15.729,6.81c.3-.9,2.429-7.872.415-6.671" transform="translate(68 91)" fill="#89c5cc"/><path d="M14.262,0c-2.653,0-2.637,13.226-2.717,14.925-.288,6.131-.221,12.263-.4,18.395-.4,13.381-.889,26.88-2.9,40.107C7.161,80.547,5.907,87.636,4.557,94.7,3.2,101.789,1.387,108.867.5,116.044c-.855,6.9-.372,13.934-.255,20.867a182.673,182.673,0,0,0,1.242,20.877c.225,1.707.49,3.407.773,5.1a40.455,40.455,0,0,0,.5,4.51c.639,2.152,3.379,2.856,5.224,2.519,4.993-.912,8.182-7.18,9.887-11.76,2.178-5.848,3.334-12.192,4.474-18.356a160.431,160.431,0,0,0,2.4-21.181c.722-14.448-.2-28.911-1.24-43.313-.576-8.009-1.241-15.984-2.258-23.943-1.013-7.926-2.313-15.816-3.16-23.765-.615-5.777-1.221-11.561-1.619-17.36C16.371,8.859,16.291,0,14.262,0" transform="translate(48 22)" fill="#69a1ac"/><path d="M26.941,118.139c-.432-13.886-6.014-74.88-7.284-91.672-.318-4.2-3.375-21.7-3.772-26.467-1.075,1.347-.983,22.309-.972,27.126.012,4.765-.578,9.45-.882,14.189-.31,4.836-7.459,67.285-8.386,71.932-1.846,9.244-3.081,18.729-4.033,28.18C.683,150.639-.76,160.358.482,169.618a28.306,28.306,0,0,0,1.473,6.188c.795,2.116,1.339,4.073,1.977,6.287,1.026,3.567,2.883,6.7,5.736,8.169,5.849,3.019,8.99-3.815,10.583-9.765a159.221,159.221,0,0,0,4.94-29.138c.847-11.04,2.1-22.1,1.75-33.22" transform="translate(32 0)" fill="#89c5cc"/></g><g transform="translate(0 159)"><rect width="91" height="91" rx="2" transform="translate(10)" fill="#fff"/><rect width="10" height="113" rx="2" transform="translate(0 10)" fill="#c5cfd6"/><rect width="10" height="113" rx="2" transform="translate(50 10)" fill="#c5cfd6"/><rect width="10" height="113" rx="2" transform="translate(101 10)" fill="#c5cfd6"/></g></g></g><g transform="translate(-24 41)"><g transform="translate(-5597 4226)"><path d="M0,0,36.255,127.227,62.707,221H82L53.891,0Z" transform="translate(56 0)" fill="#242424"/><path d="M44.518,0c-.839,65.574-3.7,101.34-4.579,107.3S25.746,151.156,0,221H19.986q49.165-100.5,54.89-113.7c3.817-8.8,15.6-44.564,33.338-107.3Z" transform="translate(1.786)" fill="#333"/><g transform="translate(0 199)"><path d="M0,21,1,0H22C36.936,10.5,61,17,61,17v4H23L10,19v2Z" transform="translate(0 19)" fill="#e4e4e4"/></g><g transform="translate(116 199)"><path d="M0,21,1,0H22C36.936,10.5,61,17,61,17v4H23L10,19v2Z" transform="translate(0 19)" fill="#e4e4e4"/></g></g><g transform="translate(-5533.111 4040.02)"><g transform="translate(0.111 1.98)"><path d="M0,73,8.262,34.49C3.655,29.081.536,22.452,1.057,15.026c1.5-21.4,31.292-16.692,37.086-5.891s5.107,38.2-2.382,40.129c-2.987.77-9.349-1.116-15.825-5.019L24,73Z" fill="#d4a181"/></g><path d="M20.206,45.051c-1.612-4.869-2.226-18.887-2.375-23.029a6.063,6.063,0,0,0-.72-.043,6,6,0,0,0-4.192,10.292c-1.389,1.959-2.944,4.007-4.727,6.119-6.7-4.018-11.669-15.782-5.12-27.083,1.81-5.536,5.908-8.493,10.747-9.866A17.408,17.408,0,0,1,25.243.6c6.734.578,12.747,2.632,14.451,3.851,0,6.375-1.236,8.266-11.786,8.1-2.592,1.369-4.586,3.727-6.662,6.817.015.206,1.41,19.2,7.291,19.2,5.912,0,10.929-3.754,13.523-3.754,1.891,0,1.469,2.367.215,4.121-1.034,1.448-6.07,2.843-6.07,5.088,0,1.267,1.269,1.265,2.373,1.263.851,0,1.606,0,1.606.577,0,2.2.7,6.341-3.122,6.341C33.195,52.2,22.106,50.792,20.206,45.051Z" transform="translate(0 0)" fill="#191847"/></g><g transform="translate(-5624.837 4091.269)"><path d="M1.227,104.545c-1.116-.688-2.338-3.28.615-5.3C9.2,94.195,19.8,85.365,21.236,82.459,24.166,76.514,38.807,0,38.807,0L60.7.082S35.688,81.133,34.145,84.956c-2.314,5.735,2.583,14.468,4.676,19.162-3.3,1.477-4.834-.409-6.512-2.294-1.789-2.01-3.745-4.019-8.184-1.954-5.68,2.643-10.377,6.838-15.975,6.838A12.989,12.989,0,0,1,1.227,104.545ZM197.379,58.658,167.922,41.29l9.409-16.279,28.328,27.635a85.884,85.884,0,0,1,20.261,11.647c1.184,1.427,2.472,4.164-3.1,2.939s-11.484-2.262-12.532-.45,2.038,4.587.1,6.958a.732.732,0,0,1-.593.283Q207.134,74.024,197.379,58.658Z" transform="translate(0 72.181)" fill="#d4a181"/><path d="M0,2.231,8.485,0c17.767,46.781,90.35,73.379,96.2,90.936,2.145,6.439-2.3,10.177.323,11.966l-10.48,9.176c-2.09-2.046-5.782,2.354-14.479.263S4.969,59.03,0,2.231Z" transform="matrix(0.996, 0.087, -0.087, 0.996, 105.727, 7.84)" fill="#c7a715"/><path d="M4.4,149.714c1-5.517-5.936-8.2-4.077-20.526C10.829,59.524,51.162,22.1,67.436,9.579l.41-5.858A4,4,0,0,1,72.115.01L99.049,1.894a4,4,0,0,1,3.712,4.269l-.72,10.293c-1,63.755,35.855,80.02,27.646,105.594-6.779,21.119-71.66,43.821-82.887,23.119-4.5-8.3-6.566-18.315-6.833-29.208-2.83,8.225-5.2,15.618-6.815,21.538-2.88,10.54-14.045,12.216-14.045,16.276Z" transform="translate(18.038 0)" fill="#ffd200"/></g></g></g></svg>