<svg xmlns="http://www.w3.org/2000/svg" xmlns:xlink="http://www.w3.org/1999/xlink" width="776" height="475" viewBox="0 0 776 475"><defs><filter id="a" x="108" y="17" width="573" height="302" filterUnits="userSpaceOnUse"><feOffset dy="3" input="SourceAlpha"/><feGaussianBlur stdDeviation="3" result="b"/><feFlood flood-opacity="0.161"/><feComposite operator="in" in2="b"/><feComposite in="SourceGraphic"/></filter></defs><g transform="translate(7154 -3403)"><ellipse cx="388" cy="225" rx="388" ry="225" transform="translate(-7154 3403)" fill="#e4e4e4"/><g transform="matrix(1, 0, 0, 1, -7154, 3403)" filter="url(#a)"><rect width="555" height="284" rx="15" transform="translate(117 23)" fill="#989898"/></g><circle cx="55" cy="55" r="55" transform="translate(-7002 3440)" fill="#c5cfd6"/><circle cx="55" cy="55" r="55" transform="translate(-7002 3573)" fill="#c5cfd6"/><g transform="translate(-7098 3525)"><g transform="translate(72)"><g transform="translate(54 31)"><path d="M0,73,8.262,34.49C3.655,29.081.536,22.452,1.057,15.025c1.5-21.4,31.292-16.692,37.086-5.891s5.107,38.2-2.382,40.129c-2.987.77-9.349-1.116-15.825-5.019L24,73Z" fill="#b28b67"/></g><path d="M-58.407,23.9A7.5,7.5,0,0,1-59.97,21a29.39,29.39,0,0,1-1-3.3c-.5-2.249-.509-4.836,1.1-6.582a7.548,7.548,0,0,1,5-2.165,9.187,9.187,0,0,1,3.545.449c1.129.371,2.1,1.111,3.2,1.57a14.306,14.306,0,0,1,1.687-7.03,7.008,7.008,0,0,1,5.218-3.4,10.347,10.347,0,0,1,6.357,1.28c.494.267.984.547,1.453.865a4.071,4.071,0,0,0,1.261.693c.513.121.768-.176,1.1-.55a8.368,8.368,0,0,1,1.3-1.168A7.647,7.647,0,0,1-22.6.423a6.649,6.649,0,0,1,2.917,2.109c.666.873,1.14,2.258,2.059,2.866.39.258.665-.084,1.02-.337.533-.38,1.042-.8,1.581-1.169A7.242,7.242,0,0,1-12.57,2.781c1.286-.3,3.064-.228,3.432,1.457A6.954,6.954,0,0,1-9.15,6.186c-.061.876-.125,1.751-.2,2.625a18.954,18.954,0,0,1-.256,1.957,2.863,2.863,0,0,0-.127,1.343c.186.435,1.046.188,1.413.2A5.582,5.582,0,0,1-6.2,12.78a2.286,2.286,0,0,1,1.285,1.189,2.136,2.136,0,0,1,.036,1.118,3.335,3.335,0,0,0,.068,1.147c.974-.48,4.349-1.545,4.774.2a2.731,2.731,0,0,1-.426,1.728,14.979,14.979,0,0,1-1.573,2.395,21.412,21.412,0,0,1-4.19,4.065,2.746,2.746,0,0,1,.716,4.6,3.4,3.4,0,0,1-2.5.725,5.524,5.524,0,0,0-1.033-.082,2.47,2.47,0,0,1-.468.158,13.928,13.928,0,0,1-3.832-.486,12.636,12.636,0,0,1-5.844-3.056,1.8,1.8,0,0,0-1.352-.621c-.5.005-1,.143-1.5.156a10.791,10.791,0,0,1-3.761-1.048,14.189,14.189,0,0,1-1.232,5c-.556,1.223-1.717,1.4-2.858,1.508-3.649.343-7.31-.04-10.963-.035,3.536.8,7.191,1.129,10.7,2.069,1.584.425.375,1.493-.3,2.233a12.87,12.87,0,0,0-2.52,4.32c-1.73-2.255-4.788-3.741-7.5-3.048-2.993.765-5.1,4.813-3.187,7.723,1.111,1.689,3.118,2.341,4.788,3.067-1.3,1.354-1.618,3.354-2.4,5.039a3.606,3.606,0,0,1-1.794,2.06,2.1,2.1,0,0,0-.947.377c-.313.323-.387.684-.786.961a4.434,4.434,0,0,1-5.494-.423,3.586,3.586,0,0,1,.122-4.7c-1.7-.708-4.791-1.618-4.116-4.263-3.679-.244-12.611-6.211-7.674-10.571-2.71-1.531-5.2-5.274-3.459-8.574,1.34-2.541,4.457-3.676,7.015-3.811" transform="translate(103 15)" fill="#191847"/></g><g transform="translate(0 187)"><g transform="translate(0 42)"><g transform="translate(55)"><path d="M27.623,0h77.255L115,124H0Z" fill="#c5cfd6"/><path d="M27.623,0h23.76L65.6,124H0Z" fill="rgba(0,0,0,0.1)"/></g></g><path d="M57.131,141.549c-1-12.65-2.861-56.444-1-76.715.785-8.557,1.633-16.7,2.465-23.927-17.858,32.116-47.08,79.1-47.08,79.1L0,114.743S13.566,70.049,22.247,51.638c9.91-21.017,19.2-39.015,23.112-45.355,6.151-9.971,16.86-6.492,22.518-.456C76.114.882,89.933,7.236,89.924,14.309,89.895,35.474,70.58,135.223,69.572,141.528c-.534,3.337-3.812,5.375-6.872,5.375C59.977,146.9,57.427,145.292,57.131,141.549Z" transform="translate(180.077 14.929)" fill="#b28b67"/><path d="M0,111.841,5.118,10.331c3.688-17.553,34.907-9.406,34.894,0-.029,21.355-12.857,95.127-12.866,101.489Z" transform="translate(219.152 8.029) rotate(20)" fill="#1e1e1e"/><g transform="translate(189.086 100.43) rotate(30)"><path d="M4.474,5.033A2,2,0,0,0,1.908,6.381L0,13.106A64.242,64.242,0,0,0,.9,21H57.3s2.2-7.268-2.538-7.848-7.87-1.047-7.87-1.047L20.68.419a1,1,0,0,0-1.332.532L17.663,5.039s-4.385,2.046-7.127,2.046Z" transform="translate(1 19)" fill="#e4e4e4"/></g><g transform="translate(232 126)"><path d="M4.474,5.033A2,2,0,0,0,1.908,6.381L0,13.106A64.242,64.242,0,0,0,.9,21H57.3s2.2-7.268-2.538-7.848-7.87-1.047-7.87-1.047L20.68.419a1,1,0,0,0-1.332.532L17.663,5.039s-4.385,2.046-7.127,2.046Z" transform="translate(1 19)" fill="#e4e4e4"/></g><path d="M170.77,36.433c0,26.567-12.617,88.537-12.625,94.387L131,130.841S136.96,47.9,135.227,47s-71.051,6.921-91.84,6.921C13.408,53.925,1.006,35.02,0,0H59.386c12.092,1.294,75.162,14.015,98.586,18.388C168,20.261,170.77,29.115,170.77,36.433Z" transform="translate(102)" fill="#3a3a3a"/></g><g transform="translate(89.224 82)"><path d="M54.362,51.452l15.247-8.376s3.208-12.21,7.672-12.287c1.151-.536.712,1.809.547,4.153-.163,2.309-.059,4.619,2.091,4.177,4.333-.892,14.908-8.757,16.73-7.16,2.7,2.363.293,9.617-2.54,13.226-5.294,6.745-9.676,9.051-20.508,12.072-8.5,2.369-18.37,9.5-18.37,9.5ZM0,35.412,34.709,16.4A85.868,85.868,0,0,1,51.771.432c1.712-.715,4.705-1.148,1.906,3.821s-5.521,10.321-4.1,11.852c.626.672,1.664.636,2.776.6,1.417-.045,2.955-.091,3.909,1.336q1.7,2.543-18.228,8.036L12.818,49.169Z" transform="translate(81.414 7.288)" fill="#997659"/><path d="M5.5,6.364A85.286,85.286,0,0,0,52.75,0l4.34,16.026C43.453,25.855,25.36,32.84,10.935,30.139-.433,28.009-4.081,13.273,5.5,6.364Z" transform="translate(58.078 33.041) rotate(-9)" fill="#c7a715"/><path d="M33.421,142.48c-12.21-1.587-23.571-3.173-30.172-1.874C-8.069,103.851,13.814,88.915,13.831,65.4,13.851,39.642,34.53,0,37.573,0H65.32c1.53,19.659,9.229,41.325,15.551,62.729,20.164,4.578,64.941-11.356,64.941-11.356s11.3,23.385,10.451,33.343c-26.064,13.615-48.4,19.685-66.8,20.085.585,10.919-.745,21.311-5.209,30.8-3.341,7.1-12.583,9.227-23.862,9.227C51.995,144.832,42.473,143.656,33.421,142.48Z" transform="translate(0)" fill="#ffd200"/></g></g><rect width="35" height="128" transform="translate(-6784 3505)" fill="#b1bac0"/><rect width="35" height="96" transform="translate(-6733 3537)" fill="#1e1e1e"/><path d="M0,0H35V152H0Z" transform="translate(-6682 3481)" fill="#c7a715"/><rect width="35" height="207" transform="translate(-6631 3426)" fill="#ffd200"/></g></svg>